<?xml version="1.0" encoding="utf-8"?>
<!-- Generator: Adobe Illustrator 24.1.1, SVG Export Plug-In . SVG Version: 6.00 Build 0)  -->
<svg version="1.1" id="Layer_1" xmlns="http://www.w3.org/2000/svg" xmlns:xlink="http://www.w3.org/1999/xlink" x="0px" y="0px"
	 viewBox="0 0 400 50" style="enable-background:new 0 0 400 50;" xml:space="preserve">
<style type="text/css">
	.st0{fill:#D6656E;}
</style>
<g>
	<path class="st0" d="M9.1,40.3c0.2,1.6,0.4,3.6-0.1,4.2c-0.6,0.6-3.5,0.9-3.6-1.2c-0.2-2.1-0.1-3.2-0.3-5.7
		c-0.3-3.2-0.3-5.3,1.8-5.3c1.3-0.1,1.6,1,2.5,2.5c2.2,4.4,5.9,6.2,9,6.3c3.1,0,5.3-1.4,5.1-4.5C23.2,29.2,5.2,29,5.1,19.8
		c0-4.9,4.1-7.9,9.4-7.9c3.6,0.1,6.9,1.4,8.7,3.8c-0.1-1.9-0.1-3.8,1.9-3.9s2.2,0.9,2.1,3.3c0,1.2,0,2,0.1,3.8
		c0.2,3.2,0.1,4.3-1.7,4.3c-1,0-1.3-0.9-2.2-2.3c-1.7-3-5-5-8.4-5c-3.2,0-5,1.7-5,3.8c0.2,5.5,18.4,5.8,18.5,17
		c0,5.6-4.1,8.5-9.4,8.5C14.6,45.2,11.2,43.2,9.1,40.3z"/>
	<path class="st0" d="M31.8,41.7c0.4-1.6,2.4-1.3,4.8-1.4c0-8.2-0.3-15.2,0.2-23.4c-2.6,0.2-5.1-0.1-5.3-2c-0.2-2.1,1.2-2.2,7.2-2.3
		h3.8c1.9,0,3.2,0.1,3.2,2c0,1.9-2.2,2.1-4.6,2.2c-0.3,3.1-0.4,5.3-0.3,8.7c4.4,0,9.5-0.1,13.6-0.3c0-3.2,0.1-5,0-8.5
		c-2.3-0.2-4.5-0.1-4.7-1.8c-0.3-2.5,2.9-2.4,7.5-2.3c5.3,0.1,6.4-0.1,6.6,2c0.1,2-2.2,1.9-5.1,2.1c0.1,8.3-0.3,16.3,0.1,23.7
		c2.9,0.1,5.2-0.2,5.1,2.2c-0.2,2.2-2.1,1.9-6.1,1.9c-1.4,0-3,0-4.8,0.1c-2.2,0.1-3.5-0.1-3.3-2.3c0.3-2.1,2.5-1.6,4.8-1.8
		c-0.1-3.8-0.1-7.5-0.1-11c-4.1,0.3-9.3,0.3-13.5,0.3c-0.1,3.7,0.1,6.7,0,10.5c2.1,0.3,4.6-0.3,4.6,2c-0.1,1.9-1.2,2.2-3.2,2.1
		c-1.4,0.1-3.9,0.1-6.1,0.1C33.2,44.4,31.1,44.2,31.8,41.7z"/>
	<path class="st0" d="M66.6,42.1c0.3-2,2.3-1.8,4.9-1.8c0.1-9.2-0.1-15.5,0-23.5c-3-0.1-5.5,0.1-4.8-2.5c0.3-1.5,1.7-1.7,4.5-1.7
		h19.2c2.5,0,1.9,3.2,2.1,6.1c0.3,2.9,0.3,4.8-2.2,4.7c-1.7-0.1-1.9-1.3-1.9-4c0-0.9-0.1-1.8-0.2-2.7H75.7c-0.2,3.3-0.1,6.2,0,9
		c1.9,0.1,3.6,0.1,5.5,0c0.1-2.2,0.3-4.5,2-4.5c2-0.1,2.2,1,2.2,2.5c-0.1,3.5-0.1,5.6-0.1,8.7c0,2.2-4.3,2.3-4.2,0.3l0.1-3
		c-2,0.1-3.5,0-5.5,0.1c0,2.7,0.1,6.9,0.1,10.4c4.5-0.2,8.1-0.1,13.1,0.1c0.1-1.3,0.1-2.9,0.1-4.5c0-2.3,0.1-3.7,2-3.7
		c2.2,0,2.2,2,2.2,4.7c0,1.1-0.1,2.1-0.1,3.3c-0.1,0.9,0.1,2.7-0.3,3.5c-0.9,1.6-6.1,0.7-10.7,0.7c-5.3,0-6.6,0.3-11.7,0.3
		C67.6,44.5,66.1,44.5,66.6,42.1z"/>
	<path class="st0" d="M96.1,42.3c0-2,1.2-1.9,3.3-2c0.9-2.1,1.4-4.3,2.1-6.6c0.8-2.4,1.3-4.3,2.2-7.2c0.7-2.5,1.3-3.8,2-6.2
		c0.7-2.2,1-3.5,1.9-6.1c0.4-1.4,1.5-2,3.3-2c2.3,0,3.2,0.9,3.6,2.1c0.9,2.7,1.3,4.2,2,6c0.9,2.9,1.4,4.2,2.1,6.5
		c1.6,5.1,2.7,9.2,4.1,13.6c2.2,0,3.5-0.2,3.5,2c0,3.1-5,1.8-7.9,2c-2,0.3-3.3,0.1-3.5-1.4c-0.3-2.4,0.9-2.5,3.3-2.7
		c-0.4-2-1.3-4.8-1.9-6.6c-3.5,0.3-7.1,0.3-10.3,0.1c-0.7,1.7-1.3,4-1.9,6.4c2.3,0.5,3.4,0,3.4,2.1c0,2-1.6,1.9-5.9,1.9
		C97.8,44.5,96.1,44.7,96.1,42.3z M115.2,30c-2.1-7.2-3.8-11.7-4.1-14.4c-0.3,3.2-2.4,8.1-4.2,14.5C109.5,30.2,112.6,30.1,115.2,30z
		"/>
	<path class="st0" d="M131.7,44.4c-1,0.1-4.4,1.2-4.4-1.9c0-2.1,0.9-2.1,5.1-2.3c0-2.3,0.1-4.2,0-6.6c-0.1-2.9,0-5.1,0.1-8
		c0.1-3.1,0.1-5.6,0.1-8.8c-3.2-0.3-5.1,0.4-5.1-2.5c0-1.9,1.8-1.7,5.4-1.8c2,0,4.8,0.1,7.4,0c3.7-0.1,6.8-0.1,9.5,1.3
		c1.7,0.9,3,2.3,3.6,3.8c1.6,3.6,0.7,8.4-1.6,10.3c-0.9,0.8-2.3,1.2-3.7,1.2c1.5,0.1,2.6,0.7,3.3,1.4c1.2,1.3,1.7,3.3,1.9,5.5
		c0.1,1.4,0.1,3.8,0.7,4.5c0.4,0.5,1.2,0.6,1.7,0.3c0.6-0.4,0.3-1.2,1.2-1.2c1.2,0.1,1.4,2.8,0.5,4c-1.3,1.9-4.5,2.2-6.4,0.6
		c-2.7-2.2-1.4-7.2-3-10.8c-1.6-3.4-5.8-2.9-11.3-2.8c0,2,0.1,3.6,0.1,5.7c0,1.3-0.1,2.6-0.1,3.9c2.6,0.1,5-0.1,5,2.2
		c-0.1,2.2-1.7,2.1-4.5,2C135.9,44.3,133.4,44.2,131.7,44.4L131.7,44.4z M149.3,24.2c0.4-1.2,0.6-3.2,0-4.7
		c-1.4-3.5-7.7-2.7-12.6-2.6c0,2.7-0.1,4.8-0.1,6.9c0,0.9,0,1.9,0,2.9C142.3,26.6,148,27.6,149.3,24.2z"/>
	<path class="st0" d="M161.5,42.5c-0.1-3.1,2.7-2.6,5.9-2.7c0.1-5.1,0-9,0-14.2c0-3.6,0.1-5.8,0.2-9.4c0-1.9,0-3.9-0.1-5.8
		c-3.7,0-5.3-0.2-5.3-3.2c0-2.4,2.7-2.6,9.8-2.3c2.1,0.1,3.6,1.2,4.9,4.9c1.6,4.2,2.9,7.5,4.4,12.1c0.9,2.5,2.3,6.1,3.4,9.8
		c0.4,1.3,0.6,2.5,0.8,4.1c0.3-1.6,0.5-3.1,0.8-4.2c1.5-4.5,3.6-10.4,5-14.3c0.8-2.3,1.6-4.6,2.6-7.4c1.2-3.2,2.3-5,3.8-5
		c6.7,0,11,0.1,11,2.5c0,2.7-2,2.9-5.2,2.7c0,1.9,0.1,3.9,0.2,5.9c0.1,4.3,0.2,7.6,0.3,11.6c0,4.6-0.1,8.1-0.1,12.1
		c3.1,0.3,5.6-0.1,5.7,2.6c0.1,2.7-3.4,2.6-8.1,2.6c-4.9,0-7.9,0-8.1-1.9c-0.2-2.9,2.3-3.2,5-3.3c0.2-5.6,0.1-12.1,0.1-17.9
		c0-3.5,0-7.5,0.2-11.6c-0.8,4-4,12.8-6.2,19.1c-0.9,2.7-2.2,6.2-3.2,8.9c-0.8,2.1-1.4,3.8-3.8,3.8c-2.6,0-3.4-2.3-3.8-3.5
		c-2-4.8-4.6-12.5-5.7-15.7c-1.2-3.6-2.9-8.5-3.8-12.4c0.3,5.3,0.2,9.4,0.2,13.5c0,5.8,0.1,10.5,0,15.8c2.5,0.4,5.5,0.5,5,3.7
		c-0.2,1.9-3,1.6-6.5,1.4c-1.3-0.1-3.5-0.1-4.8,0C163.2,45.1,161.5,45.1,161.5,42.5z"/>
	<path class="st0" d="M211.5,42.4c0-2,1.2-1.9,3.3-2c0.9-2.1,1.4-4.3,2.1-6.6c0.8-2.4,1.3-4.3,2.2-7.2c0.7-2.5,1.3-3.8,2-6.2
		c0.7-2.2,1-3.5,1.9-6.1c0.4-1.4,1.5-2,3.3-2c2.3,0,3.2,0.9,3.6,2.1c0.9,2.7,1.3,4.2,2,6c0.9,2.9,1.4,4.2,2.1,6.5
		c1.6,5.1,2.7,9.2,4.1,13.6c2.2,0,3.5-0.2,3.5,2c0,3.1-5,1.8-7.9,2c-2,0.3-3.3,0.1-3.5-1.4c-0.3-2.4,0.9-2.5,3.3-2.7
		c-0.4-2-1.3-4.8-1.9-6.6c-3.5,0.3-7.1,0.3-10.3,0.1c-0.7,1.7-1.3,4-1.9,6.4c2.3,0.5,3.4,0,3.4,2.1c0,2-1.6,1.9-5.9,1.9
		C213.3,44.4,211.5,44.6,211.5,42.4z M230.7,30c-2.1-7.2-3.8-11.7-4.1-14.4c-0.3,3.2-2.4,8.1-4.2,14.5C225,30.2,228.1,30.2,230.7,30
		z"/>
	<path class="st0" d="M243.5,42.3c0-2,1.5-1.9,4.9-2c0.6-6.6,0.4-16.2,0-23.5c-2.7,0-4.2,0.4-4.9-2c-0.7-2.5,3.6-2.3,7.2-2.3h5.3
		c3.4,0,7,0.3,9.7,1.6c2,0.9,3.7,2.5,4.8,4.1c3.1,4.4,3.8,12.3,1.8,18.3c-0.9,2.6-2.9,4.6-4.8,5.9c-4.4,2.9-11,2.2-17.1,2.1
		c-1.3,0-2.5,0-3.9,0.1C244.2,44.8,243.5,44.4,243.5,42.3z M263.2,39.8c3.5-1.2,5.9-4.7,5.9-10.7c0.1-5.7-2-10.4-7.1-11.9
		c-2.6-0.7-5.7-0.6-9.3-0.6c0.4,5.6,0.6,16.8,0,23.7C256.7,40.5,260.4,40.7,263.2,39.8z"/>
	<path class="st0" d="M298,41.7c-2.5-3.8-4.2-6.6-5.9-9.5c-1.1-1.8-4.2-6.7-5.5-8.5c-0.9-1.3-1.6-2.6-2.3-5.1
		c0.4,2.4,0.4,4.5,0.5,6.3c0.1,4.3,0.1,11.1,0.1,15.4c2.9,0.1,5.1-0.1,4.8,2.3c-0.3,2.1-1.9,2-5.3,1.9c-2-0.1-3.7-0.1-5.1-0.1
		c-2.2,0.1-3.1,0.1-3.3-1.9c-0.3-2.4,1.9-2.3,4.7-2.3c0.1-3.2,0.1-5.5,0-8.9c0-3.3-0.1-5.5-0.1-8.8c0-1.8-0.1-3.6-0.1-5.5
		c-2.5,0-4.4,0.6-4.4-2.2c0-1.9,1.2-2,4.5-2c0.7,0,3.2-0.1,3.9,0.3c1.1,0.5,1.9,2,3,3.8c1.9,3,3.1,5.2,4.9,8.2
		c1.8,2.9,3.5,5.6,5.3,8.4c1.3,2,2.2,3.8,2.7,5.5c-0.3-2.5-0.4-3.6-0.4-5.8c-0.1-1.6-0.1-9.8-0.1-11.4c0-1.5,0-3,0-4.5
		c-3.2,0-4.8,0.3-4.8-2.3c0-2,2.1-2,7-2h3.4c2,0,2.9,0.3,2.9,2.3c-0.1,2-1.9,1.9-4.4,2v4.4c0.1,2.5,0.1,4.3,0.1,6.9
		c0,5,0.1,8.4,0.1,13.1c0,2.3-0.1,3.7-2.3,3.8C300.5,45.2,299.8,44.1,298,41.7z"/>
	<path class="st0" d="M310.8,42.1c0.3-2,2.3-1.8,4.9-1.8c0.1-9.2-0.1-15.5,0-23.5c-3-0.1-5.5,0.1-4.8-2.5c0.3-1.5,1.7-1.7,4.5-1.7
		h19.2c2.5,0,1.9,3.2,2.1,6.1c0.3,2.9,0.3,4.8-2.2,4.7c-1.7-0.1-1.9-1.3-1.9-4c0-0.9-0.1-1.8-0.2-2.7H320c-0.2,3.3-0.1,6.2,0,9
		c1.9,0.1,3.6,0.1,5.5,0c0.1-2.2,0.3-4.5,2-4.5c2-0.1,2.2,1,2.2,2.5c-0.1,3.5-0.1,5.6-0.1,8.7c0,2.2-4.3,2.3-4.2,0.3l0.1-3
		c-2,0.1-3.5,0-5.5,0.1c0,2.7,0.1,6.9,0.1,10.4c4.5-0.2,8.1-0.1,13.1,0.1c0.1-1.3,0.1-2.9,0.1-4.5c0-2.3,0.1-3.7,2-3.7
		c2.2,0,2.2,2,2.2,4.7c0,1.1-0.1,2.1-0.1,3.3c-0.1,0.9,0.1,2.7-0.3,3.5c-0.9,1.6-6.1,0.7-10.7,0.7c-5.3,0-6.6,0.3-11.7,0.3
		C311.9,44.4,310.5,44.5,310.8,42.1z"/>
	<path class="st0" d="M347.4,40.3c0.2,1.6,0.4,3.6-0.1,4.2c-0.6,0.6-3.5,0.9-3.6-1.2c-0.2-2.1-0.1-3.2-0.3-5.7
		c-0.3-3.2-0.3-5.3,1.8-5.3c1.3-0.1,1.6,1,2.5,2.5c2.2,4.4,5.9,6.2,9,6.3c3.1,0,5.3-1.4,5.1-4.5c-0.4-7.3-18.4-7.5-18.5-16.8
		c0-4.9,4.1-7.9,9.4-7.9c3.6,0.1,6.9,1.4,8.7,3.8c-0.1-1.9-0.1-3.8,1.9-3.9c2-0.1,2.2,0.9,2.1,3.3c0,1.2,0,2,0.1,3.8
		c0.2,3.2,0.1,4.3-1.7,4.3c-1,0-1.3-0.9-2.2-2.3c-1.7-3-5-5-8.4-5c-3.2,0-5,1.7-5,3.8c0.2,5.5,18.4,5.8,18.5,17
		c0,5.6-4.1,8.5-9.4,8.5C352.8,45.2,349.5,43.3,347.4,40.3z"/>
	<path class="st0" d="M375.7,40.3c0.2,1.6,0.4,3.6-0.1,4.2c-0.6,0.6-3.5,0.9-3.6-1.2c-0.2-2.1-0.1-3.2-0.3-5.7
		c-0.3-3.2-0.3-5.3,1.8-5.3c1.3-0.1,1.6,1,2.5,2.5c2.2,4.4,5.9,6.2,9,6.3c3.1,0,5.3-1.4,5.1-4.5c-0.4-7.3-18.4-7.5-18.5-16.8
		c0-4.9,4.1-7.9,9.4-7.9c3.6,0.1,6.9,1.4,8.7,3.8c-0.1-1.9-0.1-3.8,1.9-3.9c2-0.1,2.2,0.9,2.1,3.3c0,1.2,0,2,0.1,3.8
		c0.2,3.2,0.1,4.3-1.7,4.3c-1,0-1.3-0.9-2.2-2.3c-1.7-3-5-5-8.4-5c-3.2,0-5,1.7-5,3.8c0.2,5.5,18.4,5.8,18.5,17
		c0,5.6-4.1,8.5-9.4,8.5C381.2,45.2,377.8,43.3,375.7,40.3z"/>
</g>
</svg>
