<?xml version="1.0" encoding="utf-8"?>
<!-- Generator: Adobe Illustrator 24.1.1, SVG Export Plug-In . SVG Version: 6.00 Build 0)  -->
<svg version="1.1" id="Layer_1" xmlns="http://www.w3.org/2000/svg" xmlns:xlink="http://www.w3.org/1999/xlink" x="0px" y="0px"
	 viewBox="0 0 100 100" style="enable-background:new 0 0 100 100;" xml:space="preserve">
<style type="text/css">
	.st0{fill-rule:evenodd;clip-rule:evenodd;fill:#2162AF;}
	.st1{fill-rule:evenodd;clip-rule:evenodd;fill:#369CD6;}
	.st2{fill-rule:evenodd;clip-rule:evenodd;fill:#EBEBEB;}
	.st3{fill-rule:evenodd;clip-rule:evenodd;fill:#FFFFFF;}
</style>
<g>
	<path class="st0" d="M50,93.6l-31.2-8.7l-7-78.5h76.5l-7,78.4L50,93.6z"/>
	<path class="st1" d="M75.3,79.9l5.9-67H50v74.1L75.3,79.9z"/>
	<path class="st2" d="M27.7,41.9l0.9,9.6H50v-9.6H27.7z M26,22.5l0.9,9.6H50v-9.6H26z M50,66.9L50,66.9L39.3,64l-0.7-7.7H29
		l1.4,15.1L50,77l0,0L50,66.9z"/>
	<path class="st3" d="M72.2,41.9l1.7-19.5H50v9.6h13.5l-0.9,9.9H50v9.6h11.8L60.6,64L50,66.9v10l19.6-5.5l0.1-1.6L72,44.5L72.2,41.9
		z"/>
</g>
</svg>
