<?xml version="1.0" encoding="utf-8"?>
<!-- Generator: Adobe Illustrator 24.1.1, SVG Export Plug-In . SVG Version: 6.00 Build 0)  -->
<svg version="1.1" id="Layer_1" xmlns="http://www.w3.org/2000/svg" xmlns:xlink="http://www.w3.org/1999/xlink" x="0px" y="0px"
	 viewBox="0 0 50 50" style="enable-background:new 0 0 50 50;" xml:space="preserve">
<style type="text/css">
	.st0{fill:#FFFFFF;}
</style>
<path class="st0" d="M25.1,4c-11.6,0-21,9.4-21,21C4,36.6,13.5,46,25.1,46C36.6,46,46,36.6,46,25.1C46,13.5,36.6,4,25.1,4z
	 M25.1,42.9C15,42.9,7.1,35,7.1,25.1c0-9.9,8-17.9,17.9-17.9c9.8,0,17.8,8,17.8,17.9C42.9,34.9,34.9,42.9,25.1,42.9z"/>
<polygon class="st0" points="33.4,14.6 25,23.1 16.6,14.6 14.6,16.6 23.1,25 14.6,33.4 16.6,35.4 25,26.9 33.4,35.4 35.4,33.4 
	26.9,25 35.4,16.6 "/>
</svg>
