<?xml version="1.0" encoding="utf-8"?>
<!-- Generator: Adobe Illustrator 24.1.1, SVG Export Plug-In . SVG Version: 6.00 Build 0)  -->
<svg version="1.1" id="Layer_1" xmlns="http://www.w3.org/2000/svg" xmlns:xlink="http://www.w3.org/1999/xlink" x="0px" y="0px"
	 viewBox="0 0 50 50" style="enable-background:new 0 0 50 50;" xml:space="preserve">
<g>
	<g>
		<path d="M25,6.5L4.3,42.5h41.5L25,6.5z M25,8.4l19.2,33.2H5.8L25,8.4z"/>
		<path d="M47.5,43.5h-45L25,4.5L47.5,43.5z M7.6,40.5h34.8L25,10.4L7.6,40.5z"/>
	</g>
	<g>
		<rect x="24.6" y="18" width="0.8" height="11.9"/>
		<rect x="23.6" y="17.4" width="2.8" height="13.3"/>
	</g>
	<g>
		<circle cx="25" cy="35.6" r="0.9"/>
		<path d="M25,37.6c-1.1,0-1.9-0.9-1.9-1.9c0-1.1,0.9-1.9,1.9-1.9c1.1,0,1.9,0.9,1.9,1.9C26.9,36.7,26.1,37.6,25,37.6z M25,35.5
			c-0.1,0-0.1,0-0.1,0.1c0,0.1,0.2,0.1,0.2,0C25.1,35.6,25.1,35.5,25,35.5z"/>
	</g>
</g>
</svg>
