<?xml version="1.0" encoding="utf-8"?>
<!-- Generator: Adobe Illustrator 24.1.1, SVG Export Plug-In . SVG Version: 6.00 Build 0)  -->
<svg version="1.1" id="Layer_1" xmlns="http://www.w3.org/2000/svg" xmlns:xlink="http://www.w3.org/1999/xlink" x="0px" y="0px"
	 viewBox="0 0 50 50" style="enable-background:new 0 0 50 50;" xml:space="preserve">
<style type="text/css">
	.st0{fill:#FFFFFF;}
</style>
<g>
	<g>
		<path class="st0" d="M25,7.5L4.3,43.5h41.5L25,7.5z M25,9.4l19.2,33.2H5.8L25,9.4z"/>
		<path class="st0" d="M47.5,44.5h-45L25,5.5L47.5,44.5z M7.6,41.5h34.8L25,11.4L7.6,41.5z"/>
	</g>
	<g>
		<rect x="24.6" y="19" class="st0" width="0.8" height="11.9"/>
		<rect x="23.6" y="18.4" class="st0" width="2.8" height="13.3"/>
	</g>
	<g>
		<circle class="st0" cx="25" cy="36.6" r="0.9"/>
		<path class="st0" d="M25,38.6c-1.1,0-1.9-0.9-1.9-1.9c0-1.1,0.9-1.9,1.9-1.9c1.1,0,1.9,0.9,1.9,1.9C26.9,37.7,26.1,38.6,25,38.6z
			 M25,36.5c-0.1,0-0.1,0-0.1,0.1c0,0.1,0.2,0.1,0.2,0C25.1,36.6,25.1,36.5,25,36.5z"/>
	</g>
</g>
</svg>
