<?xml version="1.0" encoding="utf-8"?>
<!-- Generator: Adobe Illustrator 24.1.1, SVG Export Plug-In . SVG Version: 6.00 Build 0)  -->
<svg version="1.1" id="Layer_1" xmlns="http://www.w3.org/2000/svg" xmlns:xlink="http://www.w3.org/1999/xlink" x="0px" y="0px"
	 viewBox="0 0 100 100" style="enable-background:new 0 0 100 100;" xml:space="preserve">
<style type="text/css">
	.st0{fill:#E44D26;}
	.st1{fill:#F16529;}
	.st2{fill:#FFFFFF;}
	.st3{fill:#EBEBEB;}
</style>
<g>
	<polygon class="st0" points="88.7,6.7 50.4,6.7 50.4,6.7 12.1,6.7 19.3,84.6 50.4,93.4 50.4,93.4 50.4,93.4 50.4,93.4 50.4,93.4 
		81.5,84.6 	"/>
	<polygon class="st1" points="50.4,13.1 50.4,86.8 50.4,86.8 75.6,79.7 81.8,13.1 	"/>
	<polygon class="st2" points="74.5,22.6 26.3,22.6 29,51.8 29.1,51.6 62,51.6 60.9,63.9 50.4,67 39.8,63.9 39.1,56.4 29.4,56.4 
		30.8,71.3 50.4,76.9 70,71.3 72.7,42.1 37.8,42.1 36.9,32.3 73.6,32.3 	"/>
	<g>
		<path class="st3" d="M50.4,22.6H26.3L29,51.8l0.1-0.2h21.3v-9.5H37.8l-0.9-9.8h13.5V22.6z M39.1,56.4h-9.7l1.4,14.9l19.6,5.6V67
			l-10.7-3.1L39.1,56.4z"/>
	</g>
</g>
</svg>
