<?xml version="1.0" encoding="utf-8"?>
<!-- Generator: Adobe Illustrator 24.1.1, SVG Export Plug-In . SVG Version: 6.00 Build 0)  -->
<svg version="1.1" id="Layer_1" xmlns="http://www.w3.org/2000/svg" xmlns:xlink="http://www.w3.org/1999/xlink" x="0px" y="0px"
	 viewBox="0 0 100 100" style="enable-background:new 0 0 100 100;" xml:space="preserve">
<style type="text/css">
	.st0{fill:#FFFFFF;}
</style>
<g>
	<path class="st0" d="M73,22H55c-1.65,0-3,1.35-3,3v18c0,1.65,1.35,3,3,3h18c1.65,0,3-1.35,3-3V25C76,23.35,74.65,22,73,22z M74,43
		c0,0.55-0.45,1-1,1H55c-0.55,0-1-0.45-1-1V25c0-0.55,0.45-1,1-1h18c0.55,0,1,0.45,1,1V43z"/>
	<path class="st0" d="M67,54H47V34c0-1.65-1.35-3-3-3H26c-1.65,0-3,1.35-3,3v20v21c0,1.65,1.35,3,3,3h21h20c1.65,0,3-1.35,3-3V57
		C70,55.35,68.65,54,67,54z M25,34c0-0.55,0.45-1,1-1h18c0.55,0,1,0.45,1,1v20H25V34z M26,76c-0.55,0-1-0.45-1-1V56h20v20H26z
		 M68,75c0,0.55-0.45,1-1,1H47V56h20c0.55,0,1,0.45,1,1V75z"/>
</g>
</svg>
