<?xml version="1.0" encoding="utf-8"?>
<!-- Generator: Adobe Illustrator 24.1.1, SVG Export Plug-In . SVG Version: 6.00 Build 0)  -->
<svg version="1.1" id="Layer_1" xmlns="http://www.w3.org/2000/svg" xmlns:xlink="http://www.w3.org/1999/xlink" x="0px" y="0px"
	 viewBox="0 0 100 100" style="enable-background:new 0 0 100 100;" xml:space="preserve">
<path d="M78.85,45.12L36.5,20.66c-0.87-0.5-1.9-0.5-2.77,0c-0.87,0.5-1.38,1.4-1.38,2.4v28.51c0.68,0.1,1.35,0.24,2,0.44V23.06
	c0-0.4,0.27-0.6,0.38-0.66c0.07-0.04,0.21-0.11,0.39-0.11c0.11,0,0.24,0.03,0.38,0.11l42.35,24.45c0.35,0.2,0.38,0.53,0.38,0.66
	s-0.04,0.46-0.38,0.66L42.3,68.7c-0.1,0.77-0.24,1.65-0.46,2.58l37.02-21.37c0.87-0.5,1.38-1.4,1.38-2.4S79.72,45.62,78.85,45.12z"
	/>
<path d="M44,67v-2h-3.04c-0.13-2.2-0.68-4.24-1.55-6l3.29-3.29l-1.41-1.41l-2.93,2.93C36.53,54.64,33.91,53,31,53
	s-5.53,1.64-7.36,4.23l-2.93-2.93l-1.41,1.41L22.59,59c-0.87,1.76-1.42,3.8-1.55,6H18v2h3.04c0.13,2.2,0.68,4.24,1.55,6l-3.29,3.29
	l1.41,1.41l2.93-2.93C25.47,77.36,28.09,79,31,79s5.53-1.64,7.36-4.23l2.93,2.93l1.41-1.41L39.41,73c0.87-1.76,1.42-3.8,1.55-6H44z
	 M31,55c2.52,0,4.76,1.61,6.23,4.11c-5.97,3.42-10.78,1.13-12.48,0.05C26.21,56.63,28.47,55,31,55z M31,77c-4.41,0-8-4.93-8-11
	c0-1.81,0.33-3.52,0.89-5.03c1.34,0.78,3.84,1.93,7.03,1.93c2.13,0,4.56-0.51,7.16-1.97C38.67,62.44,39,64.17,39,66
	C39,72.07,35.41,77,31,77z"/>
</svg>
