<?xml version="1.0" encoding="utf-8"?>
<!-- Generator: Adobe Illustrator 24.1.1, SVG Export Plug-In . SVG Version: 6.00 Build 0)  -->
<svg version="1.1" id="Layer_1" xmlns="http://www.w3.org/2000/svg" xmlns:xlink="http://www.w3.org/1999/xlink" x="0px" y="0px"
	 viewBox="0 0 100 100" style="enable-background:new 0 0 100 100;" xml:space="preserve">
<style type="text/css">
	.st0{fill:#FFFFFF;}
</style>
<path class="st0" d="M50,19c-17.09,0-31,13.91-31,31c0,9.02,3.87,17.15,10.04,22.82c0.69,0.64,1.41,1.24,2.16,1.81
	C36.42,78.62,42.94,81,50,81c7.06,0,13.58-2.38,18.8-6.37c0.75-0.57,1.47-1.18,2.16-1.81C77.13,67.15,81,59.02,81,50
	C81,32.91,67.09,19,50,19z M50,79c-7.26,0-13.9-2.69-18.99-7.11C31.07,61.46,39.56,53,50,53c10.44,0,18.93,8.46,18.99,18.89
	C63.9,76.31,57.26,79,50,79z M70.9,70.07c-0.8-8.76-7.01-15.96-15.25-18.27C60.56,49.62,64,44.71,64,39c0-7.72-6.28-14-14-14
	s-14,6.28-14,14c0,5.71,3.44,10.62,8.34,12.8c-8.24,2.31-14.44,9.51-15.25,18.27C24.09,64.86,21,57.78,21,50c0-15.99,13.01-29,29-29
	c15.99,0,29,13.01,29,29C79,57.78,75.91,64.86,70.9,70.07z M50,51c-6.62,0-12-5.38-12-12s5.38-12,12-12c6.62,0,12,5.38,12,12
	S56.62,51,50,51z"/>
</svg>
