<?xml version="1.0" encoding="utf-8"?>
<!-- Generator: Adobe Illustrator 24.1.1, SVG Export Plug-In . SVG Version: 6.00 Build 0)  -->
<svg version="1.1" id="Layer_1" xmlns="http://www.w3.org/2000/svg" xmlns:xlink="http://www.w3.org/1999/xlink" x="0px" y="0px"
	 viewBox="0 0 100 100" style="enable-background:new 0 0 100 100;" xml:space="preserve">
<style type="text/css">
	.st0{fill:#FFFFFF;}
</style>
<path class="st0" d="M58,21c-11.58,0-21,9.42-21,21c0,5.3,1.99,10.14,5.25,13.84L21.04,77.05l1.41,1.41l21.18-21.18
	C47.4,60.81,52.44,63,58,63c11.58,0,21-9.42,21-21C79,30.42,69.58,21,58,21z M58,61c-10.48,0-19-8.52-19-19s8.52-19,19-19
	s19,8.52,19,19S68.48,61,58,61z"/>
</svg>
