<?xml version="1.0" encoding="utf-8"?>
<!-- Generator: Adobe Illustrator 24.1.1, SVG Export Plug-In . SVG Version: 6.00 Build 0)  -->
<svg version="1.1" id="Layer_1" xmlns="http://www.w3.org/2000/svg" xmlns:xlink="http://www.w3.org/1999/xlink" x="0px" y="0px"
	 viewBox="0 0 100 100" style="enable-background:new 0 0 100 100;" xml:space="preserve">
<path d="M73,38c0-4.41-3.59-8-8-8s-8,3.59-8,8c0,4.05,3.03,7.4,6.94,7.92c-0.11,0.49-0.37,1.14-0.98,1.83
	C61.63,49.23,58.48,51,51,51c-8.63,0-12.9,5.32-15,10.17V31.93c3.94-0.49,7-3.86,7-7.93c0-4.41-3.59-8-8-8s-8,3.59-8,8
	c0,4.07,3.06,7.44,7,7.93v36.14c-3.94,0.49-7,3.86-7,7.93c0,4.41,3.59,8,8,8s8-3.59,8-8c0-4.04-3.01-7.38-6.9-7.92
	C36.55,64.58,38.97,53,51,53c6.67,0,11.22-1.35,13.52-4c0.99-1.14,1.32-2.27,1.43-3.06C69.92,45.46,73,42.09,73,38z M29,24
	c0-3.31,2.69-6,6-6s6,2.69,6,6s-2.69,6-6,6S29,27.31,29,24z M41,76c0,3.31-2.69,6-6,6s-6-2.69-6-6s2.69-6,6-6S41,72.69,41,76z
	 M65,44c-3.31,0-6-2.69-6-6s2.69-6,6-6s6,2.69,6,6S68.31,44,65,44z"/>
</svg>
