<?xml version="1.0" encoding="utf-8"?>
<!-- Generator: Adobe Illustrator 24.1.1, SVG Export Plug-In . SVG Version: 6.00 Build 0)  -->
<svg version="1.1" id="Layer_1" xmlns="http://www.w3.org/2000/svg" xmlns:xlink="http://www.w3.org/1999/xlink" x="0px" y="0px"
	 viewBox="0 0 100 100" style="enable-background:new 0 0 100 100;" xml:space="preserve">
<path d="M78,32.36L69.23,22l-1.69-2h-2.62H42c-1.65,0-3,1.35-3,3v8H23c-1.65,0-3,1.35-3,3v43c0,1.65,1.35,3,3,3h35
	c1.65,0,3-1.35,3-3v-8h16c1.65,0,3-1.35,3-3V37.82v-3.1L78,32.36z M76.77,34H68V23.64L76.77,34z M59,77c0,0.55-0.45,1-1,1H23
	c-0.55,0-1-0.45-1-1V34c0-0.55,0.45-1,1-1h16v33c0,1.65,1.35,3,3,3h17V77z M77,67H61h-2H42c-0.55,0-1-0.45-1-1V33v-2v-8
	c0-0.55,0.45-1,1-1h24v12v1v1h12v30C78,66.55,77.55,67,77,67z"/>
</svg>
