<?xml version="1.0" encoding="utf-8"?>
<!-- Generator: Adobe Illustrator 24.1.1, SVG Export Plug-In . SVG Version: 6.00 Build 0)  -->
<svg version="1.1" id="Layer_1" xmlns="http://www.w3.org/2000/svg" xmlns:xlink="http://www.w3.org/1999/xlink" x="0px" y="0px"
	 viewBox="0 0 100 100" style="enable-background:new 0 0 100 100;" xml:space="preserve">
<style type="text/css">
	.st0{fill:#330000;}
	.st1{fill:#FF9A00;}
</style>
<g>
	<path class="st0" d="M24.1,10.9h51.8c7.9,0,14.2,6.4,14.2,14.2v49.8c0,7.9-6.4,14.2-14.2,14.2H24.1c-7.9,0-14.2-6.4-14.2-14.2V25.1
		C9.9,17.2,16.2,10.9,24.1,10.9z"/>
	<g>
		<path class="st1" d="M48.7,57.7H36.2l-2.5,7.9C33.6,65.8,33.4,66,33,66h-6.3c-0.4,0-0.5-0.2-0.4-0.6l10.8-31
			c0.1-0.3,0.2-0.7,0.3-1.1c0.1-0.7,0.2-1.4,0.2-2.2c0-0.2,0.1-0.3,0.3-0.4h8.7c0.3,0,0.4,0.1,0.4,0.3l12.2,34.4
			c0.1,0.4,0,0.5-0.3,0.5h-7c-0.2,0-0.5-0.1-0.5-0.4L48.7,57.7z M38.2,50.9h8.5c-0.2-0.7-0.5-1.5-0.8-2.4c-0.3-0.9-0.6-1.9-0.9-2.9
			c-0.3-1-0.6-2-1-3.1c-0.3-1-0.6-2-0.9-3c-0.3-0.9-0.5-1.8-0.7-2.6h-0.1c-0.3,1.4-0.7,2.9-1.1,4.3c-0.5,1.6-1,3.3-1.5,4.9
			C39.2,47.9,38.7,49.5,38.2,50.9L38.2,50.9z M66.7,36.6c-1.1,0-2.2-0.4-3-1.2c-0.8-0.8-1.2-1.9-1.1-3.1c0-1.1,0.4-2.2,1.2-3
			c0.8-0.8,1.9-1.2,3-1.2c1.3,0,2.3,0.4,3,1.2c0.7,0.8,1.1,1.9,1.1,3c0,1.1-0.4,2.2-1.2,3.1C69,36.3,67.9,36.7,66.7,36.6L66.7,36.6z
			 M63,65.6V39.9c0-0.3,0.1-0.5,0.4-0.5H70c0.3,0,0.4,0.2,0.4,0.5v25.7c0,0.4-0.1,0.5-0.4,0.5h-6.6C63.1,66.2,63,66,63,65.6z"/>
	</g>
</g>
</svg>
