<?xml version="1.0" encoding="utf-8"?>
<!-- Generator: Adobe Illustrator 24.1.1, SVG Export Plug-In . SVG Version: 6.00 Build 0)  -->
<svg version="1.1" id="Layer_1" xmlns="http://www.w3.org/2000/svg" xmlns:xlink="http://www.w3.org/1999/xlink" x="0px" y="0px"
	 viewBox="0 0 50 50" style="enable-background:new 0 0 50 50;" xml:space="preserve">
<g>
	<g>
		<g>
			<path d="M18.85,41.85h-6.51c-2.01,0-3.64-1.63-3.64-3.64V11.79c0-2.01,1.63-3.64,3.64-3.64h6.51c2.01,0,3.64,1.63,3.64,3.64
				v26.42C22.49,40.22,20.86,41.85,18.85,41.85z M12.34,9.06c-1.51,0-2.73,1.22-2.73,2.73v26.42c0,1.51,1.22,2.73,2.73,2.73h6.51
				c1.51,0,2.73-1.22,2.73-2.73V11.79c0-1.51-1.22-2.73-2.73-2.73H12.34z"/>
			<path d="M18.85,41.98h-6.51c-2.08,0-3.77-1.69-3.77-3.77V11.79c0-2.08,1.69-3.77,3.77-3.77h6.51c2.08,0,3.77,1.69,3.77,3.77
				v26.42C22.62,40.29,20.93,41.98,18.85,41.98z M12.34,8.27c-1.94,0-3.52,1.58-3.52,3.52v26.42c0,1.94,1.58,3.52,3.52,3.52h6.51
				c1.94,0,3.52-1.58,3.52-3.52V11.79c0-1.94-1.58-3.52-3.52-3.52H12.34z M18.85,41.06h-6.51c-1.58,0-2.85-1.28-2.85-2.85V11.79
				c0-1.58,1.28-2.85,2.85-2.85h6.51c1.58,0,2.85,1.28,2.85,2.85v26.42C21.7,39.78,20.42,41.06,18.85,41.06z M12.34,9.19
				c-1.44,0-2.6,1.16-2.6,2.6v26.42c0,1.44,1.16,2.6,2.6,2.6h6.51c1.44,0,2.6-1.16,2.6-2.6V11.79c0-1.44-1.16-2.6-2.6-2.6H12.34z"/>
		</g>
	</g>
	<g>
		<g>
			<path d="M37.66,22.8h-6.2c-2.01,0-3.64-1.63-3.64-3.64v-7.37c0-2.01,1.63-3.64,3.64-3.64h6.2c2.01,0,3.64,1.63,3.64,3.64v7.37
				C41.31,21.17,39.68,22.8,37.66,22.8z M31.46,9.06c-1.51,0-2.73,1.22-2.73,2.73v7.37c0,1.51,1.22,2.73,2.73,2.73h6.2
				c1.51,0,2.73-1.22,2.73-2.73v-7.37c0-1.51-1.22-2.73-2.73-2.73H31.46z"/>
			<path d="M37.66,22.93h-6.2c-2.08,0-3.77-1.69-3.77-3.77v-7.37c0-2.08,1.69-3.77,3.77-3.77h6.2c2.08,0,3.77,1.69,3.77,3.77v7.37
				C41.43,21.24,39.75,22.93,37.66,22.93z M31.46,8.27c-1.94,0-3.52,1.58-3.52,3.52v7.37c0,1.94,1.58,3.52,3.52,3.52h6.2
				c1.94,0,3.52-1.58,3.52-3.52v-7.37c0-1.94-1.58-3.52-3.52-3.52H31.46z M37.66,22.01h-6.2c-1.58,0-2.85-1.28-2.85-2.85v-7.37
				c0-1.58,1.28-2.85,2.85-2.85h6.2c1.58,0,2.85,1.28,2.85,2.85v7.37C40.51,20.73,39.24,22.01,37.66,22.01z M31.46,9.19
				c-1.44,0-2.6,1.16-2.6,2.6v7.37c0,1.44,1.16,2.6,2.6,2.6h6.2c1.44,0,2.6-1.16,2.6-2.6v-7.37c0-1.44-1.16-2.6-2.6-2.6H31.46z"/>
		</g>
	</g>
	<g>
		<g>
			<path d="M37.66,41.85h-6.2c-2.01,0-3.64-1.63-3.64-3.64v-7.37c0-2.01,1.63-3.64,3.64-3.64h6.2c2.01,0,3.64,1.63,3.64,3.64v7.37
				C41.31,40.22,39.68,41.85,37.66,41.85z M31.46,28.11c-1.51,0-2.73,1.22-2.73,2.73v7.37c0,1.51,1.22,2.73,2.73,2.73h6.2
				c1.51,0,2.73-1.22,2.73-2.73v-7.37c0-1.51-1.22-2.73-2.73-2.73H31.46z"/>
			<path d="M37.66,41.98h-6.2c-2.08,0-3.77-1.69-3.77-3.77v-7.37c0-2.08,1.69-3.77,3.77-3.77h6.2c2.08,0,3.77,1.69,3.77,3.77v7.37
				C41.43,40.29,39.75,41.98,37.66,41.98z M31.46,27.32c-1.94,0-3.52,1.58-3.52,3.52v7.37c0,1.94,1.58,3.52,3.52,3.52h6.2
				c1.94,0,3.52-1.58,3.52-3.52v-7.37c0-1.94-1.58-3.52-3.52-3.52H31.46z M37.66,41.06h-6.2c-1.58,0-2.85-1.28-2.85-2.85v-7.37
				c0-1.58,1.28-2.85,2.85-2.85h6.2c1.58,0,2.85,1.28,2.85,2.85v7.37C40.51,39.78,39.24,41.06,37.66,41.06z M31.46,28.24
				c-1.43,0-2.6,1.17-2.6,2.6v7.37c0,1.43,1.17,2.6,2.6,2.6h6.2c1.43,0,2.6-1.17,2.6-2.6v-7.37c0-1.43-1.17-2.6-2.6-2.6H31.46z"/>
		</g>
	</g>
</g>
</svg>
