<?xml version="1.0" encoding="utf-8"?>
<!-- Generator: Adobe Illustrator 24.1.1, SVG Export Plug-In . SVG Version: 6.00 Build 0)  -->
<svg version="1.1" id="Layer_1" xmlns="http://www.w3.org/2000/svg" xmlns:xlink="http://www.w3.org/1999/xlink" x="0px" y="0px"
	 viewBox="0 0 50 50" style="enable-background:new 0 0 50 50;" xml:space="preserve">
<style type="text/css">
	.st0{fill:#FFFFFF;}
</style>
<g>
	<path class="st0" d="M39.73,6.5H25.75h-0.5H10.27c-1.94,0-3.52,1.58-3.52,3.52v29.96c0,1.94,1.58,3.52,3.52,3.52h13.98h0.5h14.98
		c1.94,0,3.52-1.58,3.52-3.52V10.02C43.25,8.08,41.67,6.5,39.73,6.5z M10.27,7.5h14.98h0.5h13.98c1.39,0,2.52,1.13,2.52,2.52V34.5
		H7.75V10.02C7.75,8.63,8.88,7.5,10.27,7.5z M39.73,42.5H24.75h-0.5H10.27c-1.39,0-2.52-1.13-2.52-2.52V35.5h34.5v4.48
		C42.25,41.37,41.12,42.5,39.73,42.5z"/>
</g>
</svg>
