<?xml version="1.0" encoding="utf-8"?>
<!-- Generator: Adobe Illustrator 24.1.1, SVG Export Plug-In . SVG Version: 6.00 Build 0)  -->
<svg version="1.1" id="Layer_1" xmlns="http://www.w3.org/2000/svg" xmlns:xlink="http://www.w3.org/1999/xlink" x="0px" y="0px"
	 viewBox="0 0 50 50" style="enable-background:new 0 0 50 50;" xml:space="preserve">
<g>
	<g>
		<g>
			<path d="M18.9,41.8h-6.5c-2,0-3.6-1.6-3.6-3.6V11.8c0-2,1.6-3.6,3.6-3.6h6.5c2,0,3.6,1.6,3.6,3.6v26.4
				C22.5,40.2,20.9,41.8,18.9,41.8z M12.3,9.1c-1.5,0-2.7,1.2-2.7,2.7v26.4c0,1.5,1.2,2.7,2.7,2.7h6.5c1.5,0,2.7-1.2,2.7-2.7V11.8
				c0-1.5-1.2-2.7-2.7-2.7C18.9,9.1,12.3,9.1,12.3,9.1z"/>
			<path d="M18.9,42h-6.5c-2.1,0-3.8-1.7-3.8-3.8V11.8c0-2.1,1.7-3.8,3.8-3.8h6.5c2.1,0,3.8,1.7,3.8,3.8v26.4
				C22.6,40.3,20.9,42,18.9,42z M12.3,8.3c-1.9,0-3.5,1.6-3.5,3.5v26.4c0,1.9,1.6,3.5,3.5,3.5h6.5c1.9,0,3.5-1.6,3.5-3.5V11.8
				c0-1.9-1.6-3.5-3.5-3.5H12.3z M18.9,41.1h-6.5c-1.6,0-2.9-1.3-2.9-2.8V11.8c0-1.6,1.3-2.8,2.9-2.8h6.5c1.6,0,2.9,1.3,2.9,2.9
				v26.4C21.7,39.8,20.4,41.1,18.9,41.1z M12.3,9.2c-1.4,0-2.6,1.2-2.6,2.6v26.4c0,1.4,1.2,2.6,2.6,2.6h6.5c1.4,0,2.6-1.2,2.6-2.6
				V11.8c0-1.4-1.2-2.6-2.6-2.6C18.9,9.2,12.3,9.2,12.3,9.2z"/>
		</g>
	</g>
	<g>
		<g>
			<path d="M37.7,22.8h-6.2c-2,0-3.6-1.6-3.6-3.6v-7.4c0-2,1.6-3.6,3.6-3.6h6.2c2,0,3.6,1.6,3.6,3.6v7.4
				C41.3,21.2,39.7,22.8,37.7,22.8z M31.5,9.1c-1.5,0-2.7,1.2-2.7,2.7v7.4c0,1.5,1.2,2.7,2.7,2.7h6.2c1.5,0,2.7-1.2,2.7-2.7v-7.4
				c0-1.5-1.2-2.7-2.7-2.7C37.7,9.1,31.5,9.1,31.5,9.1z"/>
			<path d="M37.7,22.9h-6.2c-2.1,0-3.8-1.7-3.8-3.8v-7.4c0-2.1,1.7-3.8,3.8-3.8h6.2c2.1,0,3.8,1.7,3.8,3.8v7.4
				C41.4,21.2,39.8,22.9,37.7,22.9z M31.5,8.3c-1.9,0-3.5,1.6-3.5,3.5v7.4c0,1.9,1.6,3.5,3.5,3.5h6.2c1.9,0,3.5-1.6,3.5-3.5v-7.4
				c0-1.9-1.6-3.5-3.5-3.5H31.5z M37.7,22h-6.2c-1.6,0-2.9-1.3-2.9-2.9v-7.4c0-1.6,1.3-2.8,2.9-2.8h6.2c1.6,0,2.8,1.3,2.8,2.9v7.4
				C40.5,20.7,39.2,22,37.7,22z M31.5,9.2c-1.4,0-2.6,1.2-2.6,2.6v7.4c0,1.4,1.2,2.6,2.6,2.6h6.2c1.4,0,2.6-1.2,2.6-2.6v-7.4
				c0-1.4-1.2-2.6-2.6-2.6C37.7,9.2,31.5,9.2,31.5,9.2z"/>
		</g>
	</g>
	<g>
		<g>
			<path d="M37.7,41.8h-6.2c-2,0-3.6-1.6-3.6-3.6v-7.4c0-2,1.6-3.6,3.6-3.6h6.2c2,0,3.6,1.6,3.6,3.6v7.4
				C41.3,40.2,39.7,41.8,37.7,41.8z M31.5,28.1c-1.5,0-2.7,1.2-2.7,2.7v7.4c0,1.5,1.2,2.7,2.7,2.7h6.2c1.5,0,2.7-1.2,2.7-2.7v-7.4
				c0-1.5-1.2-2.7-2.7-2.7H31.5z"/>
			<path d="M37.7,42h-6.2c-2.1,0-3.8-1.7-3.8-3.8v-7.4c0-2.1,1.7-3.8,3.8-3.8h6.2c2.1,0,3.8,1.7,3.8,3.8v7.4
				C41.4,40.3,39.8,42,37.7,42z M31.5,27.3c-1.9,0-3.5,1.6-3.5,3.5v7.4c0,1.9,1.6,3.5,3.5,3.5h6.2c1.9,0,3.5-1.6,3.5-3.5v-7.4
				c0-1.9-1.6-3.5-3.5-3.5H31.5z M37.7,41.1h-6.2c-1.6,0-2.9-1.3-2.9-2.8v-7.4c0-1.6,1.3-2.9,2.9-2.9h6.2c1.6,0,2.8,1.3,2.8,2.9v7.4
				C40.5,39.8,39.2,41.1,37.7,41.1z M31.5,28.2c-1.4,0-2.6,1.2-2.6,2.6v7.4c0,1.4,1.2,2.6,2.6,2.6h6.2c1.4,0,2.6-1.2,2.6-2.6v-7.4
				c0-1.4-1.2-2.6-2.6-2.6H31.5z"/>
		</g>
	</g>
</g>
</svg>
