<?xml version="1.0" encoding="utf-8"?>
<!-- Generator: Adobe Illustrator 24.1.1, SVG Export Plug-In . SVG Version: 6.00 Build 0)  -->
<svg version="1.1" id="Layer_1" xmlns="http://www.w3.org/2000/svg" xmlns:xlink="http://www.w3.org/1999/xlink" x="0px" y="0px"
	 viewBox="0 0 50 50" style="enable-background:new 0 0 50 50;" xml:space="preserve">
<g>
	<path d="M6.5,10.27v13.98v0.5v14.98c0,1.94,1.58,3.52,3.52,3.52h29.96c1.94,0,3.52-1.58,3.52-3.52V25.75v-0.5V10.27
		c0-1.94-1.58-3.52-3.52-3.52H10.02C8.08,6.75,6.5,8.33,6.5,10.27z M7.5,39.73V24.75v-0.5V10.27c0-1.39,1.13-2.52,2.52-2.52H34.5
		v34.5H10.02C8.63,42.25,7.5,41.12,7.5,39.73z M42.5,10.27v14.98v0.5v13.98c0,1.39-1.13,2.52-2.52,2.52H35.5V7.75h4.48
		C41.37,7.75,42.5,8.88,42.5,10.27z"/>
</g>
</svg>
