<?xml version="1.0" encoding="utf-8"?>
<!-- Generator: Adobe Illustrator 24.1.1, SVG Export Plug-In . SVG Version: 6.00 Build 0)  -->
<svg version="1.1" id="Layer_1" xmlns="http://www.w3.org/2000/svg" xmlns:xlink="http://www.w3.org/1999/xlink" x="0px" y="0px"
	 viewBox="0 0 100 100" style="enable-background:new 0 0 100 100;" xml:space="preserve">
<style type="text/css">
	.st0{clip-path:url(#SVGID_1_);}
	.st1{clip-path:url(#SVGID_2_);fill:#CF649A;}
</style>
<g>
	<g>
		<defs>
			<rect id="SVGID_3_" x="409.3" y="-3961.4" width="98.6" height="74"/>
		</defs>
		<clipPath id="SVGID_1_">
			<use xlink:href="#SVGID_3_"  style="overflow:visible;"/>
		</clipPath>
		<g class="st0">
			<defs>
				<rect id="SVGID_4_" x="409.3" y="-3961.4" width="98.6" height="74"/>
			</defs>
			<clipPath id="SVGID_2_">
				<use xlink:href="#SVGID_4_"  style="overflow:visible;"/>
			</clipPath>
			<path class="st1" d="M491.9-3919.3c-3.2,0-6,0.8-8.4,1.9c-0.9-1.7-1.7-3.2-1.9-4.3c-0.2-1.3-0.4-2.1-0.2-3.6
				c0.2-1.6,1.1-3.8,1.1-3.9c0-0.2-0.2-1-2.1-1c-1.9,0-3.5,0.4-3.6,0.8c-0.2,0.5-0.5,1.6-0.8,2.8c-0.3,1.7-3.7,7.7-5.6,10.9
				c-0.6-1.2-1.2-2.3-1.3-3.2c-0.2-1.3-0.4-2.1-0.2-3.6c0.2-1.6,1.1-3.8,1.1-3.9c0-0.2-0.2-1-2.1-1c-1.9,0-3.5,0.4-3.6,0.8
				s-0.4,1.6-0.8,2.8c-0.4,1.1-4.9,11.1-6.1,13.8c-0.6,1.3-1.1,2.4-1.5,3.1c-0.4,0.7,0,0.1-0.1,0.1c-0.3,0.6-0.5,1-0.5,1v0
				c-0.3,0.5-0.5,0.9-0.6,0.9c-0.1,0-0.3-1.2,0-2.9c0.7-3.5,2.3-8.9,2.3-9.1c0-0.1,0.3-1-1-1.5c-1.3-0.5-1.8,0.3-1.9,0.3
				c-0.1,0-0.2,0.3-0.2,0.3s1.5-6.1-2.8-6.1c-2.7,0-6.3,2.9-8.2,5.6c-1.2,0.6-3.6,2-6.2,3.4c-1,0.5-2,1.1-3,1.6l-0.2-0.2
				c-5.2-5.5-14.7-9.4-14.3-16.8c0.1-2.7,1.1-9.8,18.3-18.4c14.1-7,25.4-5.1,27.4-0.8c2.8,6.1-6,17.5-20.7,19.2
				c-5.6,0.6-8.5-1.5-9.3-2.3c-0.8-0.8-0.9-0.9-1.2-0.7c-0.5,0.3-0.2,1,0,1.5c0.4,1.1,2.2,3.2,5.3,4.2c2.7,0.9,9.3,1.4,17.2-1.7
				c8.9-3.4,15.8-13,13.8-21c-2.1-8.1-15.6-10.8-28.3-6.3c-7.6,2.7-15.8,6.9-21.7,12.5c-7,6.6-8.2,12.3-7.7,14.7
				c1.6,8.5,13.3,14,18,18.1c-0.2,0.1-0.5,0.3-0.6,0.4c-2.3,1.2-11.3,5.8-13.5,10.8c-2.5,5.6,0.4,9.6,2.3,10.2
				c6,1.7,12.2-1.3,15.5-6.3c3.3-5,2.9-11.4,1.4-14.3l-0.1-0.1l1.8-1.1c1.2-0.7,2.4-1.4,3.4-1.9c-0.6,1.6-1,3.4-1.2,6.1
				c-0.3,3.2,1,7.3,2.8,8.9c0.8,0.7,1.7,0.7,2.2,0.7c2,0,2.9-1.6,3.9-3.6c1.2-2.4,2.3-5.2,2.3-5.2s-1.4,7.5,2.3,7.5
				c1.4,0,2.7-1.7,3.3-2.7v0c0,0,0-0.1,0.1-0.2c0.1-0.1,0.1-0.2,0.2-0.3v0c0.5-0.9,1.7-3.1,3.6-6.6c2.3-4.6,4.6-10.3,4.6-10.3
				s0.2,1.4,0.9,3.7c0.4,1.4,1.3,2.9,1.9,4.3c-0.5,0.8-0.9,1.2-0.9,1.2l0,0c-0.4,0.6-0.9,1.2-1.4,1.8c-1.8,2.2-4,4.7-4.3,5.4
				c-0.3,0.8-0.3,1.5,0.4,2c0.5,0.4,1.4,0.4,2.3,0.4c1.7-0.1,2.8-0.5,3.4-0.8c0.9-0.3,1.9-0.8,2.9-1.5c1.8-1.3,2.9-3.2,2.8-5.8
				c-0.1-1.4-0.5-2.8-1.1-4.1c0.2-0.2,0.3-0.5,0.5-0.7c2.8-4.2,5-8.7,5-8.7s0.2,1.4,0.9,3.7c0.3,1.2,1,2.5,1.6,3.7
				c-2.7,2.2-4.3,4.7-4.9,6.4c-1.1,3.1-0.2,4.5,1.3,4.8c0.7,0.1,1.7-0.2,2.5-0.5c0.9-0.3,2.1-0.8,3.1-1.6c1.8-1.3,3.5-3.2,3.4-5.7
				c-0.1-1.2-0.4-2.3-0.8-3.4c2.3-0.9,5.2-1.5,8.9-1c8,0.9,9.6,6,9.3,8c-0.3,2.1-2,3.2-2.5,3.6c-0.6,0.3-0.7,0.5-0.7,0.7
				c0.1,0.4,0.3,0.4,0.8,0.3c0.7-0.1,4.2-1.7,4.4-5.6C505-3913.9,500.3-3919.3,491.9-3919.3L491.9-3919.3z M430-3898.4
				c-2.7,2.9-6.4,4-8,3.1c-1.7-1-1-5.3,2.2-8.3c2-1.9,4.6-3.6,6.3-4.7c0.4-0.2,1-0.6,1.6-1c0.1-0.1,0.2-0.1,0.2-0.1
				c0.1-0.1,0.3-0.2,0.4-0.3C434-3905.3,432.8-3901.5,430-3898.4 M449.4-3911.6c-0.9,2.3-2.9,8-4,7.7c-1-0.3-1.6-4.7-0.2-9
				c0.7-2.2,2.3-4.8,3.2-5.8c1.5-1.6,3-2.2,3.4-1.5C452.2-3919.3,450-3913,449.4-3911.6 M465.4-3903.9c-0.4,0.2-0.8,0.3-0.9,0.2
				c-0.1-0.1,0.2-0.3,0.2-0.3s2-2.1,2.8-3.1c0.5-0.6,1-1.2,1.6-2v0.2C469-3906.4,466.5-3904.6,465.4-3903.9L465.4-3903.9z
				 M477.7-3906.8c-0.3-0.2-0.3-0.9,0.7-3c0.4-0.8,1.2-2.2,2.7-3.5c0.2,0.5,0.3,1.1,0.3,1.6C481.4-3908.5,479.1-3907.3,477.7-3906.8
				"/>
		</g>
	</g>
</g>
</svg>
