<?xml version="1.0" encoding="utf-8"?>
<!-- Generator: Adobe Illustrator 24.1.1, SVG Export Plug-In . SVG Version: 6.00 Build 0)  -->
<svg version="1.1" id="Layer_1" xmlns="http://www.w3.org/2000/svg" xmlns:xlink="http://www.w3.org/1999/xlink" x="0px" y="0px"
	 viewBox="0 0 200 50" style="enable-background:new 0 0 200 50;" xml:space="preserve">
<style type="text/css">
	.st0{fill:#EF6D00;}
</style>
<g>
	<path class="st0" d="M12.5,33.8l-0.72-2.37L7.03,17.74L3.29,7.23c1.76,0.03,3.33,0.04,4.71,0.04c0.84,0,2.16-0.01,3.97-0.04
		c0.3,1.16,0.53,2.03,0.7,2.63c0.23,0.78,0.68,2.19,1.33,4.23l2.87,9.21c0.29,0.96,0.64,2.21,1.05,3.76l0.89-2.24l6.79-14.88
		c0.12-0.27,0.25-0.58,0.4-0.93c0.15-0.35,0.39-0.94,0.71-1.77c1.88,0.03,3.39,0.04,4.54,0.04c0.71,0,2.13-0.01,4.24-0.04
		c-1.32,2.47-2.82,5.35-4.49,8.64l-6.71,13.31c-0.65,1.3-1.37,2.83-2.18,4.61c-2.18-0.03-3.74-0.04-4.67-0.04
		C16.55,33.76,14.91,33.77,12.5,33.8z"/>
	<path class="st0" d="M35.11,33.8c0.18-1.58,0.32-2.89,0.41-3.91c0.09-1.02,0.18-2.34,0.26-3.93s0.16-3.36,0.22-5.29
		c0.06-1.93,0.12-4.18,0.15-6.73c1.69,0.03,3.04,0.04,4.05,0.04c0.92,0,2.25-0.01,3.97-0.04c-0.22,2.45-0.38,4.61-0.48,6.46
		c-0.1,1.86-0.16,3.82-0.19,5.9c-0.05,3.68-0.08,6.19-0.08,7.51c-1.54-0.03-2.87-0.04-3.99-0.04C38.34,33.76,36.9,33.77,35.11,33.8z
		 M36.33,11.44c0.08-1.54,0.12-2.76,0.12-3.66c0-0.26-0.01-0.61-0.02-1.05c1.57,0.03,2.89,0.04,3.95,0.04
		c1.47,0,2.75-0.01,3.85-0.04c-0.04,0.4-0.06,0.74-0.08,1.01l-0.12,2.41C44.01,10.51,44,10.94,44,11.44
		c-1.28-0.03-2.52-0.04-3.7-0.04C39.08,11.4,37.76,11.41,36.33,11.44z"/>
	<path class="st0" d="M47.66,33.39c-0.17-2.76-0.36-4.98-0.58-6.64c1.46,0.65,2.75,1.1,3.89,1.35s2.13,0.38,2.99,0.38
		c1.13,0,2.03-0.17,2.7-0.5c0.67-0.33,1-0.82,1-1.47c0-0.22-0.03-0.43-0.1-0.63c-0.06-0.2-0.19-0.43-0.37-0.68
		c-0.18-0.25-0.44-0.53-0.78-0.83l-3.67-3.19c-0.86-0.73-1.46-1.25-1.79-1.58c-0.69-0.66-1.23-1.28-1.61-1.85
		c-0.38-0.57-0.66-1.15-0.84-1.74c-0.18-0.59-0.26-1.22-0.26-1.88c0-0.79,0.14-1.57,0.42-2.33c0.28-0.76,0.7-1.47,1.26-2.13
		c0.56-0.66,1.3-1.23,2.22-1.71c0.92-0.48,1.91-0.81,2.96-0.98s2.13-0.26,3.25-0.26c2.19,0,4.58,0.25,7.16,0.76
		c0.04,0.9,0.08,1.72,0.14,2.46c0.05,0.75,0.18,2.05,0.37,3.92c-1.19-0.48-2.28-0.81-3.27-1c-0.99-0.19-1.84-0.28-2.55-0.28
		c-1.01,0-1.85,0.19-2.52,0.56c-0.67,0.38-1,0.84-1,1.4c0,0.26,0.05,0.51,0.16,0.76c0.1,0.25,0.3,0.54,0.58,0.87
		c0.29,0.33,0.66,0.69,1.13,1.09c0.47,0.4,1.2,0.98,2.2,1.76l1.4,1.11c0.42,0.34,0.86,0.75,1.34,1.23c0.48,0.48,0.9,0.95,1.25,1.42
		c0.35,0.47,0.62,0.9,0.81,1.28c0.19,0.39,0.33,0.78,0.42,1.18c0.09,0.4,0.14,0.82,0.14,1.27c0,1.17-0.28,2.28-0.84,3.34
		c-0.56,1.06-1.35,1.93-2.37,2.61c-1.02,0.68-2.15,1.16-3.38,1.43c-1.23,0.27-2.52,0.41-3.88,0.41C53.52,34.3,50.86,34,47.66,33.39z
		"/>
	<path class="st0" d="M69.57,33.8c0.18-1.58,0.32-2.89,0.41-3.91c0.09-1.02,0.18-2.34,0.26-3.93c0.08-1.6,0.16-3.36,0.22-5.29
		c0.06-1.93,0.12-4.18,0.15-6.73c1.69,0.03,3.04,0.04,4.05,0.04c0.92,0,2.25-0.01,3.97-0.04c-0.22,2.45-0.38,4.61-0.48,6.46
		c-0.1,1.86-0.16,3.82-0.19,5.9c-0.05,3.68-0.08,6.19-0.08,7.51c-1.54-0.03-2.87-0.04-3.99-0.04C72.81,33.76,71.36,33.77,69.57,33.8
		z M70.8,11.44c0.08-1.54,0.12-2.76,0.12-3.66c0-0.26-0.01-0.61-0.02-1.05c1.57,0.03,2.89,0.04,3.95,0.04
		c1.47,0,2.75-0.01,3.85-0.04c-0.04,0.4-0.06,0.74-0.08,1.01l-0.12,2.41c-0.03,0.36-0.04,0.79-0.04,1.28
		c-1.28-0.03-2.52-0.04-3.7-0.04C73.55,11.4,72.23,11.41,70.8,11.44z"/>
	<path class="st0" d="M88.27,33.8c0.64-6.31,1.03-13.25,1.16-20.82l-8.28,0.21l0.1-2.16c0.05-1.15,0.09-2.42,0.12-3.79
		c3.68,0.03,7.98,0.04,12.88,0.04l4.81-0.02h4.67l2.53-0.02l-0.12,1.91c-0.05,1.02-0.09,1.87-0.11,2.54
		c-0.02,0.67-0.03,1.17-0.03,1.51c-2.77-0.14-5.06-0.21-6.86-0.21h-1.36c-0.2,2.29-0.35,4.41-0.45,6.35
		c-0.14,2.78-0.25,5.49-0.33,8.11c-0.08,2.62-0.12,4.74-0.12,6.36c-2.13-0.03-3.5-0.04-4.12-0.04C92.19,33.76,90.7,33.77,88.27,33.8
		z"/>
	<path class="st0" d="M126.17,13.93l-0.41,9.91l-0.19,9.19c-0.03,1.27-0.04,2.02-0.04,2.24c0,1.49-0.11,2.76-0.34,3.8
		c-0.23,1.04-0.68,1.88-1.36,2.51c-0.68,0.63-1.52,1.07-2.53,1.32c-1.01,0.25-2.15,0.38-3.44,0.38c-0.77,0-1.7-0.04-2.81-0.13
		c-1.11-0.09-2.35-0.25-3.71-0.49c-0.08-1.42-0.25-3.35-0.53-5.78c1.15,0.35,2.17,0.53,3.06,0.53c0.71,0,1.36-0.14,1.93-0.41
		c0.45-0.21,0.81-0.48,1.07-0.82c0.26-0.34,0.46-0.79,0.6-1.36c0.13-0.51,0.24-1.37,0.33-2.59c0.15-2.39,0.28-5.3,0.37-8.74
		c0.06-2.92,0.1-5.44,0.1-7.57v-1.99c1.54,0.03,2.88,0.04,4.01,0.04C123.47,13.97,124.76,13.95,126.17,13.93z M118.5,11.36
		c0.13-1.89,0.2-3.43,0.21-4.63c1.06,0.03,2.35,0.04,3.85,0.04c1.35,0,2.62-0.01,3.81-0.04c-0.13,1.89-0.21,3.43-0.25,4.63
		c-1.27-0.04-2.54-0.06-3.81-0.06C121,11.3,119.73,11.32,118.5,11.36z"/>
	<path class="st0" d="M130.1,33.8c0.32-3.35,0.56-6.15,0.71-8.41c0.15-2.26,0.3-5.26,0.45-9c0.15-3.74,0.22-6.22,0.22-7.44
		l-0.02-1.71c3.06,0.03,6.76,0.04,11.11,0.04c4.01,0,7.54-0.01,10.6-0.04l-0.04,0.64c-0.01,0.16-0.05,0.72-0.1,1.69l-0.12,2.11
		c-0.03,0.45-0.04,0.91-0.04,1.38c-2.5-0.1-4.61-0.16-6.31-0.16c-1.87,0-3.13,0-3.79,0.01c-0.66,0.01-1.68,0.04-3.07,0.09
		l-0.24,4.48c1.53,0.04,3.32,0.06,5.35,0.06c0.73,0,2.66-0.05,5.8-0.14c-0.13,1.66-0.25,3.64-0.37,5.94
		c-2.24-0.03-3.97-0.04-5.17-0.04c-1.79,0-3.79,0.05-6.01,0.14l-0.23,4.73h2.24c0.66,0,2.03-0.02,4.1-0.06l4.03-0.1
		c0.6-0.01,1.59-0.06,2.99-0.16c-0.16,1.92-0.29,3.91-0.39,5.96c-3.17-0.03-6.64-0.04-10.41-0.04l-8.56,0.02L130.1,33.8z"/>
	<path class="st0" d="M164.93,13.93l-0.41,9.91l-0.19,9.19c-0.03,1.27-0.04,2.02-0.04,2.24c0,1.49-0.11,2.76-0.34,3.8
		c-0.23,1.04-0.68,1.88-1.36,2.51c-0.68,0.63-1.52,1.07-2.53,1.32c-1.01,0.25-2.15,0.38-3.44,0.38c-0.77,0-1.7-0.04-2.81-0.13
		c-1.11-0.09-2.35-0.25-3.71-0.49c-0.08-1.42-0.25-3.35-0.53-5.78c1.15,0.35,2.17,0.53,3.06,0.53c0.71,0,1.36-0.14,1.93-0.41
		c0.45-0.21,0.81-0.48,1.07-0.82c0.26-0.34,0.46-0.79,0.6-1.36c0.13-0.51,0.24-1.37,0.33-2.59c0.15-2.39,0.28-5.3,0.37-8.74
		c0.06-2.92,0.1-5.44,0.1-7.57v-1.99c1.54,0.03,2.88,0.04,4.01,0.04C162.23,13.97,163.53,13.95,164.93,13.93z M157.26,11.36
		c0.13-1.89,0.2-3.43,0.21-4.63c1.06,0.03,2.35,0.04,3.85,0.04c1.35,0,2.62-0.01,3.81-0.04c-0.13,1.89-0.21,3.43-0.25,4.63
		c-1.27-0.04-2.54-0.06-3.81-0.06C159.77,11.3,158.5,11.32,157.26,11.36z"/>
	<path class="st0" d="M170.05,7.23c2.02,0.03,3.45,0.04,4.28,0.04c1.04,0,2.42-0.01,4.14-0.04l-0.58,8.27
		c-0.12,1.56-0.2,3.02-0.26,4.38c-0.06,1.36-0.09,2.3-0.09,2.82c0,0.99,0.07,1.81,0.21,2.47s0.4,1.22,0.78,1.68
		c0.38,0.46,0.9,0.81,1.57,1.04c0.67,0.23,1.36,0.35,2.09,0.35c0.62,0,1.21-0.08,1.75-0.25c0.43-0.14,0.81-0.33,1.15-0.58
		c0.3-0.23,0.56-0.5,0.78-0.81c0.27-0.37,0.51-0.83,0.72-1.39c0.21-0.53,0.36-1.2,0.47-2.04c0.12-0.85,0.27-2.78,0.47-5.79
		c0.17-2.56,0.3-4.91,0.39-7.04c0.08-2.07,0.15-3.11,0.21-3.11c1.96,0,3.5,0,4.63,0h3.95l-0.95,13.82
		c-0.01,0.26-0.02,0.47-0.02,0.64c-0.05,2.7-0.22,4.6-0.5,5.71c-0.28,1.11-0.74,2.07-1.39,2.89c-0.65,0.82-1.6,1.55-2.84,2.21
		c-1.25,0.66-2.66,1.12-4.24,1.39c-1.58,0.27-3.19,0.41-4.81,0.41c-1.45,0-2.86-0.1-4.2-0.31c-1.25-0.21-2.37-0.51-3.37-0.9
		c-1-0.4-1.87-0.86-2.61-1.39c-0.68-0.49-1.19-1-1.56-1.51c-0.36-0.51-0.65-1.13-0.86-1.84c-0.23-0.8-0.35-1.67-0.35-2.59
		c0-0.31,0.01-0.78,0.04-1.41c0.03-0.63,0.08-1.53,0.18-2.71l0.25-3.11c0.06-0.82,0.14-2.02,0.22-3.6L170.05,7.23z"/>
</g>
</svg>
