<?xml version="1.0" encoding="utf-8"?>
<!-- Generator: Adobe Illustrator 24.1.1, SVG Export Plug-In . SVG Version: 6.00 Build 0)  -->
<svg version="1.1" id="Layer_1" xmlns="http://www.w3.org/2000/svg" xmlns:xlink="http://www.w3.org/1999/xlink" x="0px" y="0px"
	 viewBox="0 0 50 50" style="enable-background:new 0 0 50 50;" xml:space="preserve">
<style type="text/css">
	.st0{fill:#DA2128;}
</style>
<g>
	<path class="st0" d="M25.78,5.36c-0.49,0.39-0.99,0.76-1.49,1.12c-0.92,0.73-1.77,1.54-2.53,2.43l-0.59,0.82
		c-0.13,0.16-0.25,0.34-0.35,0.52c-0.05,0.08-0.09,0.17-0.13,0.27c-0.08,0.14-0.15,0.28-0.2,0.43c-0.09,0.28-0.16,0.56-0.23,0.84
		l-0.06,0.69c-0.01,0.2-0.01,0.39,0,0.59c0.09,1.06,0.3,2.1,0.64,3.11c0.51,1.06,1.05,2.1,1.63,3.12l2.98,3.34
		c0.81-0.96,1.59-1.94,2.36-2.94l0.79-1.34c0.55-0.9,0.95-1.89,1.18-2.93l0.14-1.11c0.07-0.5,0.05-1-0.06-1.48
		c-0.02-0.19-0.06-0.38-0.1-0.56l-0.25-0.78c-0.19-0.6-0.45-1.18-0.78-1.72c-0.41-0.65-0.79-1.32-1.16-1.99
		c-0.09-0.12-0.17-0.24-0.24-0.36L25.78,5.36"/>
	<path class="st0" d="M10.89,12.48c-0.48-0.12-0.96-0.26-1.43-0.4c-0.19-0.03-0.38-0.07-0.57-0.11c-0.01,0.11-0.02,0.22-0.02,0.33
		l0.14,1.24c0.02,0.17,0.03,0.35,0.06,0.52l0.08,0.6c0.22,1.81,0.82,3.55,1.75,5.12c0.78,1.13,1.75,2.11,2.86,2.92
		c1.16,0.63,2.41,1.07,3.71,1.3c1.65-0.06,3.28-0.32,4.86-0.78c-0.01-0.11-0.02-0.23-0.04-0.34l-0.23-1.14
		c-0.35-1.54-1.02-2.99-1.96-4.26l-0.95-1.07c-0.74-0.87-1.62-1.61-2.6-2.19l-0.5-0.25c-0.4-0.2-0.81-0.38-1.23-0.54
		c-0.93-0.29-1.89-0.5-2.86-0.63c-0.12-0.04-0.25-0.08-0.37-0.12C11.35,12.64,11.12,12.57,10.89,12.48"/>
	<path class="st0" d="M37.68,13.84c-1.07-0.2-2.17-0.13-3.2,0.21c-0.41,0.16-0.8,0.36-1.17,0.6c-0.94,0.64-1.8,1.39-2.57,2.23
		c-0.04,0.05-0.08,0.09-0.12,0.14c-0.34,0.45-0.63,0.94-0.84,1.46c-0.2,0.48-0.43,0.95-0.7,1.4l-0.21,0.52
		c-0.12,0.27-0.21,0.55-0.28,0.84l-0.54,2.21c0.17,0.04,0.35,0.07,0.52,0.1l2,0.26c0.42,0.07,0.84,0.1,1.26,0.09
		c1.82-0.08,3.59-0.55,5.21-1.38c0.1-0.04,0.21-0.09,0.31-0.14c0.81-0.41,1.59-0.87,2.33-1.39c0.95-0.63,1.76-1.45,2.38-2.4
		c0.19-0.27,0.36-0.57,0.5-0.87c0.3-0.76,0.49-1.55,0.56-2.37l-2.53-0.87c-0.11-0.03-0.21-0.06-0.32-0.09
		C39.41,14.15,38.55,13.97,37.68,13.84"/>
	<path class="st0" d="M15.69,32.35c0.57-0.23,1.09-0.57,1.53-1.01l0.95-0.95c0.73-0.78,1.41-1.63,2.01-2.52
		c0.28-0.43,0.57-0.86,0.87-1.27c-1.34-0.62-2.72-1.15-4.13-1.58c-0.85-0.24-1.7-0.45-2.57-0.62c-0.34-0.06-0.68-0.09-1.02-0.1
		l-1.74-0.1c-0.47-0.01-0.94,0.04-1.4,0.16c-1.95,0.54-3.78,1.45-5.37,2.7l-0.76,0.61c0.65,1.02,1.37,2,2.15,2.93
		c0.05,0.06,0.1,0.13,0.15,0.19c0.1,0.12,0.21,0.24,0.32,0.34l0.89,0.89c0.36,0.18,0.73,0.35,1.1,0.51c0.7,0.38,1.47,0.61,2.27,0.68
		l0.58,0.06c1.19-0.08,2.36-0.3,3.5-0.64C15.23,32.56,15.47,32.46,15.69,32.35"/>
	<path class="st0" d="M36.47,24.29c-0.18-0.02-0.37-0.02-0.55,0c-0.41,0.04-0.81,0.1-1.21,0.16c-0.57,0.19-1.13,0.4-1.68,0.63
		c-1.34,0.51-2.6,1.22-3.71,2.12l0.46,0.85c0.29,0.55,0.62,1.07,0.98,1.58c0.37,0.46,0.78,0.87,1.24,1.24l0.3,0.21
		c0.18,0.14,0.37,0.26,0.58,0.36l0.33,0.2c0.13,0.08,0.27,0.15,0.4,0.22l1.17,0.47l0.15,0.06c0.46,0.15,0.95,0.25,1.43,0.31
		c0.58,0.06,1.16,0.09,1.74,0.09c0.1,0,0.2,0,0.31,0c0.16,0.01,0.33,0,0.49-0.02c0.37-0.01,0.74-0.03,1.1-0.06
		c0.57-0.05,1.15-0.12,1.71-0.21c0.83-0.14,1.66-0.31,2.48-0.5c0.33-0.12,0.66-0.23,0.99-0.33l0.24-0.07
		c0.18-0.05,0.37-0.11,0.54-0.18c-0.02-0.05-0.04-0.09-0.05-0.14c-0.41-1.04-0.88-2.06-1.4-3.05L44.37,28
		c-0.09-0.14-0.17-0.29-0.25-0.44c-0.31-0.39-0.64-0.75-1-1.09l-0.67-0.55c-0.19-0.14-0.4-0.26-0.6-0.38
		c-1.25-0.58-2.58-0.98-3.95-1.17l-0.27-0.02C37.25,24.3,36.86,24.28,36.47,24.29"/>
	<path class="st0" d="M34.22,34.05c-0.5-0.56-1.06-1.07-1.67-1.52c-1.8-1.24-3.78-2.2-5.86-2.86l-0.08,0.35
		c-0.45,1.33-0.75,2.71-0.92,4.1c-0.03,0.31-0.04,0.63-0.03,0.94c-0.01,0.07-0.01,0.13-0.01,0.2c0.01,0.64,0.1,1.28,0.27,1.9
		c0.07,0.23,0.16,0.46,0.28,0.68c0.29,0.46,0.6,0.91,0.91,1.35c0.09,0.13,0.19,0.26,0.31,0.37c0.5,0.5,1.04,0.96,1.6,1.38
		c1.04,0.73,2.14,1.35,3.3,1.87l0.59,0.21l2.51,0.88c0.45,0.18,0.91,0.35,1.38,0.5l0.06-2.81c-0.02-0.6-0.07-1.21-0.15-1.81
		c-0.04-0.55-0.12-1.1-0.22-1.65c-0.12-0.75-0.4-1.47-0.8-2.11C35.23,35.35,34.74,34.68,34.22,34.05"/>
	<path class="st0" d="M23.4,29.71c-1.85,0.72-3.66,1.51-5.45,2.37l-0.92,0.59c-0.56,0.57-1.13,1.13-1.73,1.66
		c-0.58,0.55-1.02,1.22-1.28,1.96c-0.09,0.27-0.14,0.56-0.14,0.85c-0.05,1.05,0.02,2.11,0.19,3.14c0.23,1.12,0.54,2.23,0.92,3.31
		l0.26,1.04c0.07,0,0.14,0,0.22-0.01c0.06-0.02,0.12-0.03,0.18-0.04c1.32-0.44,2.6-0.95,3.87-1.52c0.11-0.06,0.23-0.12,0.34-0.18
		c0.85-0.45,1.63-1.02,2.33-1.68c0.17-0.17,0.33-0.36,0.47-0.55c0.07-0.07,0.14-0.14,0.2-0.22l0.18-0.23
		c0.99-1.35,1.54-2.97,1.57-4.64c0-0.25,0-0.5,0.01-0.75c-0.06-0.5-0.14-0.99-0.23-1.49l-0.04-0.3c-0.08-0.26-0.15-0.53-0.21-0.8
		c-0.02-0.09-0.04-0.17-0.07-0.25c-0.19-0.7-0.4-1.38-0.62-2.07L23.4,29.71"/>
</g>
</svg>
