<?xml version="1.0" encoding="utf-8"?>
<!-- Generator: Adobe Illustrator 24.1.1, SVG Export Plug-In . SVG Version: 6.00 Build 0)  -->
<svg version="1.1" id="Layer_1" xmlns="http://www.w3.org/2000/svg" xmlns:xlink="http://www.w3.org/1999/xlink" x="0px" y="0px"
	 viewBox="0 0 300 65.5" style="enable-background:new 0 0 300 65.5;" xml:space="preserve">
<style type="text/css">
	.st0{fill:#4F5959;}
</style>
<g>
	<path class="st0" d="M105.1,22.3h-5.9C97,17.7,92.8,13,85.3,9.4l0,0l-0.6-0.3L68.6,39.6l4.8,0l13.2-25c4.6,2.9,13.8,10.5,9.3,24.5
		l3.8,2.2c0,0,3-7,0.9-15.1h4.5v31h4.3V9.5h-4.3L105.1,22.3L105.1,22.3z"/>
	<path class="st0" d="M113.7,57.1h4.2V9.5h-4.2V57.1z"/>
	<path class="st0" d="M40.2,39.5l3.9,1.8c0,0,8.1-18.8-11.8-30.2l-0.1-0.1c-0.9-0.5-1.9-1-2.9-1.5l-0.8-0.4L12.3,39.6h5l13.1-25
		C34.6,17,44.9,24.6,40.2,39.5"/>
	<path class="st0" d="M56,53.3H29.2V39.5h-4.6v17.6h36V9.5H56V53.3z"/>
	<path class="st0" d="M231.2,57.1h4.6V9.5h-4.6V57.1z"/>
	<path class="st0" d="M234.4,18.8h-13.3v3.8h13.3V18.8z M235.8,53.3h-32.2v3.8h32.2V53.3z"/>
	<path class="st0" d="M207.7,57.1h-4.6V39.5h4.6V57.1z M285.3,18.3H272v3.8h13.3V18.3z M287.7,35.8h-32.7v3.8h32.7V35.8z
		 M287.7,53.3H257v3.8h30.7V53.3z M287.7,44.4h-32.7v3.8h32.7V44.4z"/>
	<path class="st0" d="M259.6,57.1h-4.6V44.5h4.6V57.1z M287.7,9.5H283v23h4.6V9.5z M287.7,38.5H283v6.8h4.6V38.5z"/>
	<path class="st0" d="M196.6,13.3V9.5h25.8c0,0,0.5,2,0.5,4.4s0.1,10.4-7.1,16.7c-7.9,6.9-21.3,6-21.3,6l-1.1-4
		c2.6,0,13.2,0.2,19.4-5c6.4-5.2,5.8-13.8,5.8-13.8l0-0.5L196.6,13.3"/>
	<path class="st0" d="M256.6,8.4L256.6,8.4l-12.3,23.3h4.8l9.9-18.8c7.8,1.6,13.1,8.5,12.7,16.7c0,0.7-0.1,1.4-0.3,2.1l4,1.7
		c0.2-1.2,0.5-2.5,0.5-3.8C276.3,17.9,267.4,8.8,256.6,8.4"/>
	<path class="st0" d="M168.6,57.1h4.2V9.5h-4.2V57.1z"/>
	<path class="st0" d="M128.6,41.8c15.3-1,21.6-12.2,21.6-12.2h9.7v27.5h4.3V9.5h-4.3v8.6h-6.1c0.2-2.8-0.2-6.4-1-8.6h-22.2v3.9h18.8
		c0.3,1.6,0.2,2.9,0.2,2.9C149.4,28.2,141,36.9,127,38L128.6,41.8z M159.9,25.8h-7.8c0.4-1.2,0.9-2.5,1.2-3.8h6.7L159.9,25.8
		L159.9,25.8z"/>
</g>
</svg>
