<?xml version="1.0" encoding="utf-8"?>
<!-- Generator: Adobe Illustrator 24.1.1, SVG Export Plug-In . SVG Version: 6.00 Build 0)  -->
<svg version="1.1" id="Layer_1" xmlns="http://www.w3.org/2000/svg" xmlns:xlink="http://www.w3.org/1999/xlink" x="0px" y="0px"
	 viewBox="0 0 300 65.52" style="enable-background:new 0 0 300 65.52;" xml:space="preserve">
<style type="text/css">
	.st0{fill:#FFFFFF;}
</style>
<g>
	<path class="st0" d="M105.07,22.28h-5.92c-2.17-4.61-6.3-9.26-13.83-12.88l-0.01,0.02L84.73,9.1L68.63,39.58l4.82-0.01l13.17-24.99
		c4.58,2.85,13.75,10.54,9.25,24.48l3.78,2.17c0,0,2.97-7.04,0.87-15.11h4.54v31.01h4.28V9.48h-4.28V22.28z"/>
	<path class="st0" d="M113.73,57.13h4.24V9.48h-4.24V57.13z"/>
	<path class="st0" d="M40.15,39.53l3.91,1.83c0,0,8.08-18.81-11.84-30.23l-0.09-0.05c-0.91-0.52-1.89-1.03-2.93-1.52l-0.77-0.4
		L12.33,39.63h5.02l13.07-25.04C34.58,16.99,44.86,24.63,40.15,39.53"/>
	<path class="st0" d="M55.99,53.29H29.24V39.51H24.6v17.61h35.98V9.47h-4.59V53.29z"/>
	<path class="st0" d="M231.2,57.13h4.64V9.49h-4.64V57.13z"/>
	<path class="st0" d="M234.38,18.77H221.1v3.83h13.28V18.77z M235.83,53.3h-32.19v3.83h32.19V53.3z"/>
	<path class="st0" d="M207.74,57.13h-4.64V39.55h4.64V57.13z M285.33,18.31h-13.29v3.83h13.29V18.31z M287.67,35.79h-32.73v3.83
		h32.73V35.79z M287.67,53.27h-30.69v3.83h30.69V53.27z M287.67,44.41h-32.73v3.85h32.73V44.41z"/>
	<path class="st0" d="M259.59,57.11h-4.64V44.55h4.64V57.11z M287.67,9.46h-4.64v23.01h4.64V9.46z M287.67,38.49h-4.64v6.8h4.64
		V38.49z"/>
	<path class="st0" d="M196.6,13.32V9.48h25.79c0,0,0.5,2,0.5,4.43c0,2.43,0.07,10.42-7.1,16.69c-7.89,6.9-21.3,6.02-21.3,6.02
		l-1.05-4.03c2.55,0,13.19,0.15,19.44-4.98c6.36-5.22,5.79-13.8,5.79-13.8l-0.04-0.5H196.6"/>
	<path class="st0" d="M256.59,8.39L256.59,8.39l-12.31,23.27h4.81l9.89-18.78c7.77,1.63,13.13,8.54,12.7,16.67
		c-0.04,0.71-0.15,1.41-0.32,2.11l3.97,1.66c0.22-1.23,0.48-2.48,0.53-3.76C276.31,17.86,267.39,8.83,256.59,8.39"/>
	<path class="st0" d="M168.6,57.13h4.24V9.48h-4.24V57.13z"/>
	<path class="st0" d="M128.58,41.84c15.3-0.98,21.62-12.22,21.62-12.22h9.73v27.51h4.28V9.47h-4.28v8.62h-6.06
		c0.17-2.76-0.23-6.41-0.99-8.58h-22.18v3.9l18.77,0c0.27,1.55,0.23,2.92,0.23,2.92c-0.25,11.86-8.73,20.61-22.68,21.63
		L128.58,41.84z M159.93,25.76h-7.84c0.45-1.23,0.94-2.5,1.19-3.82h6.66V25.76z"/>
</g>
</svg>
