<?xml version="1.0" encoding="utf-8"?>
<!-- Generator: Adobe Illustrator 24.1.1, SVG Export Plug-In . SVG Version: 6.00 Build 0)  -->
<svg version="1.1" id="Layer_1" xmlns="http://www.w3.org/2000/svg" xmlns:xlink="http://www.w3.org/1999/xlink" x="0px" y="0px"
	 viewBox="0 0 250 30" style="enable-background:new 0 0 250 30;" xml:space="preserve">
<style type="text/css">
	.st0{fill:#BBBBBB;}
	.st1{fill:#2D7AD6;}
	.st2{fill:#9CDCFE;}
	.st3{fill:#CE915B;}
	.st4{fill:#F8F8F8;}
</style>
<path class="st0" d="M8.4,18.3l-0.6,0.6l-3.9-3.3l3.9-3.3L8.4,13l-3.2,2.6L8.4,18.3z"/>
<path class="st1" d="M15.3,18.8h-1V15c0-0.5-0.1-0.8-0.3-1s-0.4-0.3-0.7-0.3c-0.1,0-0.3,0-0.4,0.1s-0.2,0.1-0.4,0.2
	s-0.3,0.2-0.4,0.4s-0.3,0.4-0.5,0.6v3.9h-1v-8.3h1V13v0.9c0.2-0.2,0.3-0.4,0.5-0.5s0.3-0.2,0.5-0.3s0.3-0.1,0.5-0.2s0.3-0.1,0.5-0.1
	c0.6,0,1,0.2,1.4,0.5s0.5,0.9,0.5,1.6v3.9H15.3z"/>
<path class="st1" d="M22.1,18.8h-5v-0.9l2-2c0.3-0.3,0.6-0.6,0.8-0.8s0.4-0.4,0.5-0.6s0.2-0.4,0.2-0.5s0.1-0.4,0.1-0.6
	c0-0.2,0-0.4-0.1-0.5s-0.1-0.3-0.2-0.4s-0.2-0.2-0.4-0.3S19.5,12,19.3,12c-0.3,0-0.6,0.1-0.9,0.2s-0.5,0.3-0.7,0.6l-0.6-0.7
	c0.3-0.3,0.6-0.5,1-0.7s0.8-0.3,1.3-0.3c0.3,0,0.6,0.1,0.9,0.2s0.5,0.2,0.7,0.4s0.4,0.4,0.5,0.7s0.2,0.6,0.2,0.9
	c0,0.3,0,0.6-0.1,0.8s-0.2,0.5-0.4,0.7s-0.4,0.5-0.6,0.8s-0.5,0.6-0.9,0.9l-1.4,1.4H22v0.9H22.1z"/>
<path class="st2" d="M34.9,18.6c-0.3,0.1-0.5,0.2-0.8,0.2s-0.6,0.1-0.9,0.1c-0.9,0-1.6-0.3-2.1-0.8s-0.8-1.2-0.8-2.2
	c0-0.5,0.1-0.9,0.2-1.3s0.3-0.7,0.6-1s0.6-0.5,0.9-0.6c0.3-0.1,0.8-0.2,1.2-0.2c0.3,0,0.6,0,0.9,0.1s0.5,0.1,0.8,0.2v1
	c-0.3-0.1-0.5-0.2-0.8-0.3s-0.5-0.1-0.8-0.1s-0.5,0-0.7,0.1S32.2,14,32,14.2s-0.3,0.4-0.4,0.7s-0.2,0.6-0.2,0.9
	c0,0.7,0.2,1.2,0.5,1.6c0.3,0.4,0.8,0.5,1.4,0.5c0.3,0,0.5,0,0.8-0.1s0.5-0.2,0.8-0.3C34.9,17.5,34.9,18.6,34.9,18.6z"/>
<path class="st2" d="M39,11.4h-1.7v-0.8H40V18h1.8v0.8H37V18h2V11.4z"/>
<path class="st2" d="M47.3,18.8V18c-0.3,0.3-0.6,0.5-1,0.7s-0.7,0.2-1,0.2s-0.6,0-0.9-0.1s-0.4-0.2-0.6-0.4s-0.3-0.3-0.3-0.5
	s-0.1-0.4-0.1-0.7c0-0.6,0.2-1.1,0.7-1.4c0.4-0.3,1.1-0.5,1.9-0.5h1.2v-0.5c0-0.3-0.1-0.6-0.3-0.8s-0.6-0.3-1-0.3
	c-0.3,0-0.7,0-1,0.1s-0.7,0.2-1,0.3v-0.9c0.1,0,0.3-0.1,0.4-0.1s0.3-0.1,0.5-0.1s0.4-0.1,0.6-0.1s0.4,0,0.6,0c0.4,0,0.7,0,1,0.1
	s0.5,0.2,0.7,0.4s0.3,0.4,0.5,0.6s0.2,0.5,0.2,0.9V19h-1.1V18.8z M47.2,16.1h-1.3c-0.3,0-0.5,0-0.7,0.1s-0.3,0.1-0.5,0.2
	s-0.2,0.2-0.3,0.3s-0.1,0.3-0.1,0.4s0,0.2,0.1,0.3s0.1,0.2,0.2,0.3S44.9,18,45,18s0.3,0.1,0.5,0.1s0.5-0.1,0.8-0.2s0.6-0.4,1-0.7
	L47.2,16.1L47.2,16.1z"/>
<path class="st2" d="M54.8,17.2c0,0.2,0,0.4-0.1,0.6s-0.2,0.3-0.3,0.4s-0.3,0.2-0.4,0.3s-0.3,0.2-0.5,0.2s-0.4,0.1-0.6,0.1
	s-0.4,0-0.6,0c-0.4,0-0.8,0-1.1-0.1s-0.7-0.1-1-0.2v-0.9c0.3,0.1,0.7,0.2,1,0.2s0.7,0.1,1,0.1c0.5,0,0.8-0.1,1.1-0.2
	s0.4-0.3,0.4-0.6c0-0.1,0-0.2-0.1-0.3s-0.1-0.2-0.2-0.2s-0.2-0.2-0.5-0.2s-0.5-0.2-0.8-0.3c-0.3-0.1-0.5-0.2-0.7-0.3
	s-0.4-0.2-0.6-0.4s-0.3-0.3-0.4-0.5s-0.1-0.4-0.1-0.7c0-0.2,0-0.3,0.1-0.5s0.2-0.4,0.4-0.5s0.4-0.3,0.7-0.4s0.7-0.2,1.2-0.2
	c0.2,0,0.5,0,0.8,0s0.6,0.1,0.9,0.1v0.9c-0.3-0.1-0.6-0.1-0.9-0.2s-0.5-0.1-0.7-0.1c-0.3,0-0.5,0-0.6,0.1s-0.3,0.1-0.4,0.2
	s-0.2,0.1-0.2,0.2s-0.1,0.2-0.1,0.3s0,0.2,0.1,0.3s0.1,0.2,0.2,0.2s0.3,0.2,0.5,0.2s0.5,0.2,0.8,0.3s0.6,0.2,0.9,0.3
	s0.4,0.2,0.6,0.4c0.1,0.1,0.3,0.3,0.3,0.5S54.8,17,54.8,17.2z"/>
<path class="st2" d="M61.4,17.2c0,0.2,0,0.4-0.1,0.6s-0.2,0.3-0.3,0.4s-0.3,0.2-0.4,0.3s-0.3,0.2-0.5,0.2s-0.4,0.1-0.6,0.1
	s-0.4,0-0.6,0c-0.4,0-0.8,0-1.1-0.1s-0.7-0.1-1-0.2v-0.9c0.3,0.1,0.7,0.2,1,0.2s0.7,0.1,1,0.1c0.5,0,0.8-0.1,1.1-0.2
	s0.4-0.3,0.4-0.6c0-0.1,0-0.2-0.1-0.3s-0.1-0.2-0.2-0.2s-0.2-0.2-0.5-0.2s-0.5-0.2-0.8-0.3c-0.3-0.1-0.5-0.2-0.7-0.3
	s-0.4-0.2-0.6-0.4s-0.3-0.3-0.4-0.5s0-0.2,0-0.4s0-0.3,0.1-0.5s0.2-0.4,0.4-0.5s0.4-0.3,0.7-0.4s0.7-0.2,1.2-0.2c0.2,0,0.5,0,0.8,0
	s0.6,0.1,0.9,0.1v0.9c-0.3-0.1-0.6-0.1-0.9-0.2s-0.5-0.1-0.7-0.1c-0.3,0-0.5,0-0.6,0.1s-0.3,0.1-0.4,0.2s-0.2,0.1-0.2,0.2
	S58,14.3,58,14.4s0,0.2,0.1,0.3s0.1,0.2,0.2,0.2s0.3,0.2,0.5,0.2s0.5,0.2,0.8,0.3s0.6,0.2,0.9,0.3s0.4,0.2,0.6,0.4
	c0.1,0.1,0.3,0.3,0.3,0.5S61.4,17,61.4,17.2z"/>
<path class="st0" d="M68.2,15h-5v-0.9h5V15z M68.2,17.1h-5v-0.9h5V17.1z"/>
<path class="st3" d="M71.8,10.5l-0.2,2.7h-1l-0.2-2.7H71.8z M74.1,10.5l-0.2,2.7h-1l-0.2-2.7H74.1z"/>
<path class="st3" d="M81.6,15.8c0,0.5-0.1,1-0.2,1.4s-0.3,0.7-0.6,1s-0.6,0.5-0.9,0.6S79.2,19,78.8,19c-0.2,0-0.4,0-0.6,0
	s-0.4-0.1-0.6-0.1v2.5h-1v-8.3h0.9l0.1,1c0.3-0.4,0.6-0.7,0.9-0.8s0.7-0.2,1.1-0.2c0.3,0,0.6,0.1,0.9,0.2s0.5,0.3,0.6,0.6
	s0.3,0.6,0.4,0.9S81.6,15.3,81.6,15.8z M80.5,15.8c0-0.3,0-0.6-0.1-0.8s-0.1-0.5-0.2-0.7S80,14,79.9,13.9s-0.3-0.2-0.5-0.2
	c-0.1,0-0.3,0-0.4,0.1s-0.3,0.1-0.4,0.2s-0.3,0.2-0.5,0.4s-0.3,0.4-0.5,0.6v2.9c0.2,0.1,0.4,0.1,0.6,0.2s0.4,0.1,0.6,0.1
	c0.6,0,1-0.2,1.3-0.6S80.5,16.6,80.5,15.8z"/>
<path class="st3" d="M88.3,15.8c0,0.5-0.1,0.9-0.2,1.3s-0.3,0.7-0.6,1s-0.5,0.5-0.9,0.6s-0.7,0.2-1.2,0.2c-0.4,0-0.8-0.1-1.1-0.2
	s-0.6-0.3-0.8-0.6s-0.4-0.6-0.5-0.9s-0.2-0.8-0.2-1.3c0-0.5,0.1-0.9,0.2-1.3s0.3-0.7,0.6-1s0.5-0.5,0.9-0.6s0.7-0.2,1.2-0.2
	c0.4,0,0.8,0.1,1.1,0.2s0.6,0.3,0.8,0.6s0.4,0.6,0.5,0.9S88.3,15.3,88.3,15.8z M87.2,15.9c0-0.4,0-0.7-0.1-1s-0.2-0.5-0.3-0.7
	s-0.3-0.3-0.5-0.4s-0.5-0.1-0.7-0.1c-0.3,0-0.6,0.1-0.8,0.2s-0.4,0.3-0.5,0.5s-0.2,0.4-0.3,0.7s-0.1,0.5-0.1,0.8c0,0.4,0,0.7,0.1,1
	s0.2,0.5,0.3,0.7s0.3,0.3,0.5,0.4s0.4,0.1,0.7,0.1c0.3,0,0.6-0.1,0.8-0.2s0.4-0.3,0.5-0.5s0.2-0.4,0.3-0.7S87.2,16.2,87.2,15.9z"/>
<path class="st3" d="M90,12.9h0.9V14c0.3-0.4,0.7-0.7,1-0.9s0.7-0.3,1-0.3c0.6,0,1.1,0.2,1.4,0.6s0.5,1,0.4,1.8h-1
	c0-0.5-0.1-0.9-0.2-1.1s-0.4-0.3-0.7-0.3c-0.1,0-0.3,0-0.4,0.1s-0.2,0-0.4,0.1s-0.3,0.2-0.5,0.4S91.2,14.8,91,15v3.8h-1V12.9z"/>
<path class="st3" d="M101.1,18.7c-0.2,0.1-0.5,0.1-0.7,0.1s-0.5,0-0.8,0c-0.7,0-1.3-0.2-1.7-0.5s-0.5-0.8-0.5-1.5v-3.1h-1.6v-0.9
	h1.6v-1.6l1-0.3v1.9h2.6v0.9h-2.6v3c0,0.4,0.1,0.7,0.3,0.9s0.6,0.3,1,0.3c0.2,0,0.4,0,0.6,0s0.5-0.1,0.7-0.1L101.1,18.7L101.1,18.7z
	"/>
<path class="st3" d="M108.2,11.5c-0.5-0.1-1-0.2-1.4-0.2c-0.9,0-1.4,0.5-1.4,1.4v1h2.6v0.8h-2.6v4.2h-1v-4.2h-1.9v-0.8h1.9v-1
	c0-1.6,0.8-2.3,2.4-2.3c0.4,0,0.9,0,1.3,0.1L108.2,11.5L108.2,11.5z"/>
<path class="st3" d="M114.7,15.8c0,0.5-0.1,0.9-0.2,1.3s-0.3,0.7-0.6,1s-0.5,0.5-0.9,0.6s-0.7,0.2-1.2,0.2c-0.4,0-0.8-0.1-1.1-0.2
	s-0.6-0.3-0.8-0.6s-0.4-0.6-0.5-0.9s-0.2-0.8-0.2-1.3c0-0.5,0.1-0.9,0.2-1.3s0.3-0.7,0.6-1s0.5-0.5,0.9-0.6s0.7-0.2,1.2-0.2
	c0.4,0,0.8,0.1,1.1,0.2s0.6,0.3,0.8,0.6s0.4,0.6,0.5,0.9S114.7,15.3,114.7,15.8z M113.6,15.9c0-0.4,0-0.7-0.1-1s-0.2-0.5-0.3-0.7
	s-0.3-0.3-0.5-0.4s-0.5-0.1-0.7-0.1c-0.3,0-0.6,0.1-0.8,0.2s-0.4,0.3-0.5,0.5s-0.2,0.4-0.3,0.7s-0.1,0.5-0.1,0.8c0,0.4,0,0.7,0.1,1
	s0.2,0.5,0.3,0.7s0.3,0.3,0.5,0.4s0.4,0.1,0.7,0.1c0.3,0,0.6-0.1,0.8-0.2s0.4-0.3,0.5-0.5s0.2-0.4,0.3-0.7S113.6,16.2,113.6,15.9z"
	/>
<path class="st3" d="M118.1,11.4h-1.7v-0.8h2.8V18h1.8v0.8h-4.7V18h1.9v-6.6H118.1z"/>
<path class="st3" d="M124.7,13.8H123V13h2.8v5h1.8v0.8h-4.7V18h1.9v-4.2H124.7z M125.1,10.5c0.1,0,0.2,0,0.3,0.1s0.2,0.1,0.3,0.2
	s0.1,0.2,0.2,0.3s0.1,0.2,0.1,0.3s0,0.2-0.1,0.3s-0.1,0.2-0.2,0.3s-0.2,0.1-0.3,0.2s-0.2,0.1-0.3,0.1s-0.2,0-0.3-0.1
	s-0.2-0.1-0.3-0.2s-0.1-0.2-0.2-0.3s-0.1-0.2-0.1-0.3s0-0.2,0.1-0.3s0.1-0.2,0.2-0.3s0.2-0.1,0.3-0.2S125,10.5,125.1,10.5z"/>
<path class="st3" d="M134.4,15.8c0,0.5-0.1,0.9-0.2,1.3s-0.3,0.7-0.6,1s-0.5,0.5-0.9,0.6s-0.7,0.2-1.2,0.2c-0.4,0-0.8-0.1-1.1-0.2
	s-0.6-0.3-0.8-0.6s-0.4-0.6-0.5-0.9s-0.2-0.8-0.2-1.3c0-0.5,0.1-0.9,0.2-1.3s0.3-0.7,0.6-1s0.5-0.5,0.9-0.6s0.7-0.2,1.2-0.2
	c0.4,0,0.8,0.1,1.1,0.2s0.6,0.3,0.8,0.6s0.4,0.6,0.5,0.9S134.4,15.3,134.4,15.8z M133.4,15.9c0-0.4,0-0.7-0.1-1s-0.2-0.5-0.3-0.7
	s-0.3-0.3-0.5-0.4s-0.5-0.1-0.7-0.1c-0.3,0-0.6,0.1-0.8,0.2s-0.4,0.3-0.5,0.5s-0.2,0.4-0.3,0.7s-0.1,0.5-0.1,0.8c0,0.4,0,0.7,0.1,1
	s0.2,0.5,0.3,0.7s0.3,0.3,0.5,0.4s0.4,0.1,0.7,0.1s0.6-0.1,0.8-0.2s0.4-0.3,0.5-0.5s0.2-0.4,0.3-0.7S133.4,16.2,133.4,15.9z"/>
<path class="st3" d="M137.8,10.5l-0.2,2.7h-1l-0.2-2.7H137.8z M140.1,10.5l-0.2,2.7h-1l-0.2-2.7H140.1z"/>
<path class="st0" d="M142.8,13l0.6-0.7l3.9,3.3l-3.9,3.3l-0.6-0.6l3.2-2.6L142.8,13z"/>
<path class="st4" d="M165.3,17.3v1.3h-10v-1.3h4.2v-2h-3.3V14h1.4v-3h-1.5V9.7h8.4V11H163v3.1h1.5v1.3h-3.4v2h4.2V17.3z M159.1,14.1
	h2.3V11h-2.3V14.1z"/>
<path class="st4" d="M176.3,17.3v1.3h-10v-1.3H176.3z M175.3,15.7h-7.8V9.6h7.7v1.3h-6.1V12h5.8v1.2h-5.8v1.2h6.2L175.3,15.7
	L175.3,15.7z"/>
<path class="st4" d="M187.4,13.5v1.2h-10v-1.2h4.2v-0.7h-3.2v-1.2h1.3v-1.4h-1.4V9.1h8.2v1.2h-1.4v1.4h1.3v1.2h-3.2v0.7L187.4,13.5
	L187.4,13.5z M180.1,18.6h6.3v1.1h-7.9V17h6.1v-0.6h-6.1v-1.1h7.6V18h-6L180.1,18.6L180.1,18.6z M181.2,11.6h2.3v-1.4h-2.3V11.6z"/>
<path class="st4" d="M190.6,16c1.7,0,3.1-0.1,4.6-0.4l0.2,1.3c-1.8,0.3-3.4,0.4-5.4,0.4h-1v-4.5h3.6V11H189V9.7h5.2V14h-3.6
	L190.6,16L190.6,16z M197.6,8.8v11.1H196V8.8H197.6z"/>
<path class="st4" d="M209.5,17.3v1.3h-10v-1.3h4.2v-1.9c-1.9-0.2-3.3-1.4-3.3-3c0-1.8,1.8-3,4.1-3c2.4,0,4.1,1.2,4.1,3
	c0,1.6-1.4,2.8-3.3,3v1.9H209.5z M204.4,14.2c1.5,0,2.6-0.7,2.6-1.8s-1-1.8-2.6-1.8c-1.5,0-2.6,0.7-2.6,1.8
	C201.9,13.5,202.9,14.2,204.4,14.2z"/>
<path class="st0" d="M219.4,18.3l-0.6,0.6l-3.9-3.3l3.9-3.3l0.6,0.7l-3.2,2.6L219.4,18.3z"/>
<path class="st0" d="M226.2,10.5l-4,9.5h-1l4-9.5H226.2z"/>
<path class="st1" d="M232.8,18.8h-1V15c0-0.5-0.1-0.8-0.3-1s-0.4-0.3-0.7-0.3c-0.1,0-0.3,0-0.4,0.1s-0.2,0.1-0.4,0.2
	s-0.3,0.2-0.4,0.4s-0.3,0.4-0.5,0.6v3.9h-1v-8.3h1V13v0.9c0.2-0.2,0.3-0.4,0.5-0.5s0.3-0.2,0.5-0.3s0.3-0.1,0.5-0.2s0.3-0.1,0.5-0.1
	c0.6,0,1,0.2,1.4,0.5s0.5,0.9,0.5,1.6v3.9H232.8z"/>
<path class="st1" d="M239.7,18.8h-5v-0.9l2-2c0.3-0.3,0.6-0.6,0.8-0.8s0.4-0.4,0.5-0.6s0.2-0.4,0.2-0.5s0.1-0.4,0.1-0.6
	c0-0.2,0-0.4-0.1-0.5s-0.1-0.3-0.2-0.4s-0.2-0.2-0.4-0.3s-0.4-0.1-0.6-0.1c-0.3,0-0.6,0.1-0.9,0.2s-0.5,0.3-0.7,0.6l-0.6-0.7
	c0.3-0.3,0.6-0.5,1-0.7s0.8-0.3,1.3-0.3c0.3,0,0.6,0.1,0.9,0.2s0.5,0.2,0.7,0.4s0.4,0.4,0.5,0.7s0.2,0.6,0.2,0.9
	c0,0.3,0,0.6-0.1,0.8s-0.2,0.5-0.4,0.7s-0.4,0.5-0.6,0.8s-0.5,0.6-0.9,0.9L236,18h3.7V18.8z"/>
<path class="st0" d="M241.6,13l0.6-0.7l3.9,3.3l-3.9,3.3l-0.6-0.6l3.2-2.6L241.6,13z"/>
</svg>
